<svg width="23" height="31" viewBox="0 0 23 31" fill="none" xmlns="http://www.w3.org/2000/svg">
<path fill-rule="evenodd" clip-rule="evenodd" d="M4.43067 16.5095C4.53138 16.5203 4.67703 16.5289 4.88389 16.5289C5.5579 16.5289 6.20248 16.6753 6.75873 17.0286C7.2597 17.3493 7.65228 17.8137 7.88519 18.3611C8.13543 18.9328 8.21057 19.5588 8.23227 20.0446C8.8505 20.1375 9.77553 20.143 11.0817 20.143C12.3871 20.143 13.3129 20.1383 13.9312 20.0446C13.9529 19.558 14.028 18.9328 14.2783 18.3603C14.5109 17.813 14.9032 17.3486 15.4039 17.0278C15.9617 16.6753 16.6048 16.5289 17.2788 16.5289C17.4856 16.5289 17.6321 16.5211 17.7328 16.5103L17.7421 16.4483C17.7793 16.1857 17.7963 15.8084 17.7963 15.2397C17.7963 13.8134 18.3696 12.9566 18.7299 12.4158C18.8004 12.3112 18.8623 12.2175 18.9111 12.1346C19.19 11.6574 19.6037 10.785 19.6037 8.26869C19.6037 6.05219 18.6183 4.43223 17.0921 3.31894C15.5217 2.17234 13.3424 1.54946 11.0817 1.54946C8.82106 1.54946 6.64252 2.17234 5.07059 3.31894C3.54515 4.43223 2.5597 6.05219 2.5597 8.26946C2.5597 10.785 2.9734 11.6574 3.2523 12.1354C3.30111 12.2175 3.36309 12.3112 3.43359 12.4158C3.79462 12.9566 4.36714 13.8134 4.36714 15.2389C4.36714 15.8084 4.38418 16.1857 4.42137 16.4475L4.43067 16.5095V16.5095ZM2.81768 15.2389C2.81768 17.5623 3.07644 18.0783 4.88389 18.0783C6.69133 18.0783 6.69133 19.6278 6.69133 20.6597C6.69133 21.6924 8.49955 21.6924 11.0817 21.6924C13.6639 21.6924 15.4721 21.6924 15.4721 20.6597C15.4721 19.627 15.4721 18.0783 17.2796 18.0783C19.087 18.0783 19.345 17.5623 19.3458 15.2389C19.3458 14.3201 19.6285 13.8855 19.9702 13.361C20.4931 12.5584 21.1532 11.5458 21.1532 8.26946C21.1532 -2.75649 1.01024 -2.75649 1.01024 8.26946C1.01024 11.5458 1.67031 12.5591 2.19325 13.361C2.53491 13.8855 2.81768 14.3201 2.81768 15.2389Z" fill="#333333"/>
<path d="M9.53304 11.6194C9.53304 12.2358 9.28817 12.827 8.8523 13.2628C8.41643 13.6987 7.82527 13.9436 7.20885 13.9436C6.59244 13.9436 6.00127 13.6987 5.5654 13.2628C5.12953 12.827 4.88466 12.2358 4.88466 11.6194C4.88466 11.003 5.12953 10.4118 5.5654 9.97594C6.00127 9.54007 6.59244 9.2952 7.20885 9.2952C7.82527 9.2952 8.41643 9.54007 8.8523 9.97594C9.28817 10.4118 9.53304 11.003 9.53304 11.6194V11.6194ZM17.2811 11.6171C17.2816 12.2335 17.0373 12.8249 16.6017 13.2611C16.1662 13.6973 15.5753 13.9427 14.9589 13.9432C14.3424 13.9437 13.7511 13.6993 13.3148 13.2638C12.8786 12.8283 12.6333 12.2374 12.6327 11.6209C12.6325 11.3157 12.6923 11.0134 12.8089 10.7314C12.9255 10.4493 13.0965 10.1929 13.3121 9.97692C13.7476 9.54069 14.3386 9.29533 14.955 9.29482C15.5714 9.2943 16.1628 9.53868 16.599 9.97419C16.815 10.1898 16.9864 10.4459 17.1035 10.7278C17.2205 11.0097 17.2809 11.3119 17.2811 11.6171V11.6171Z" fill="#333333"/>
<path fill-rule="evenodd" clip-rule="evenodd" d="M8.54449 26.7305L0.00387374 29.4769L0.478008 30.952L11.0825 27.5416L21.6917 30.935L22.1642 29.4591L13.619 26.7259L22.1596 23.9794L21.6847 22.5043L11.0817 25.9147L0.472585 22.5214L0 23.9973L8.54527 26.7305H8.54449Z" fill="#333333"/>
</svg>
