<svg width="31" height="22" viewBox="0 0 31 22" fill="none" xmlns="http://www.w3.org/2000/svg">
<path d="M8.9852 2.66103C9.50689 2.52886 10.0325 2.31739 10.4101 2.03905C11.399 1.31289 11.9729 -0.147992 10.7076 0.0121685C10.3393 0.0588171 10.0738 0.0681467 9.85651 0.0759214C9.32858 0.0938034 9.09343 0.102356 8.39264 0.617823C8.12513 0.812984 7.87714 1.03352 7.65215 1.27635C6.56281 0.46777 5.11374 0.106243 2.57923 0.23064C2.47598 0.23064 2.37695 0.271596 2.30394 0.344498C2.23093 0.417401 2.18991 0.516278 2.18991 0.619378C2.18991 0.722478 2.23093 0.821356 2.30394 0.894258C2.37695 0.967161 2.47598 1.00812 2.57923 1.00812H3.93175C4.15445 1.15117 4.34444 1.2849 4.5134 1.41241L1.72272 4.8955H1.55764C1.31482 4.89545 1.07535 4.95209 0.858362 5.06091C0.641371 5.16973 0.452871 5.3277 0.307918 5.52222C0.162965 5.71673 0.0655746 5.9424 0.0235265 6.18119C-0.0185216 6.41998 -0.00406266 6.66529 0.0657485 6.89751L0.299344 7.67498C0.395636 7.99529 0.592784 8.27606 0.861533 8.47564C1.13028 8.67522 1.45631 8.78296 1.79124 8.78289H4.40906C4.73814 8.78305 5.0587 8.8873 5.32476 9.08066L7.03 10.3184C7.08139 10.3557 7.13434 10.3899 7.18807 10.4195C8.40822 13.5605 9.69533 16.0064 11.1358 17.2372L11.4045 20.4559C11.212 20.4884 11.0388 20.5919 10.9191 20.7459C10.7995 20.8998 10.7421 21.0931 10.7584 21.2873C10.7746 21.4815 10.8633 21.6625 11.0069 21.7945C11.1505 21.9265 11.3385 21.9999 11.5337 22H13.8697V15.0027H21.5082C22.6606 16.1231 23.9532 17.0016 25.9388 17.3351L26.1988 20.4559C26.0064 20.4884 25.8332 20.5919 25.7135 20.7459C25.5939 20.8998 25.5365 21.0931 25.5527 21.2873C25.569 21.4815 25.6577 21.6625 25.8013 21.7945C25.9449 21.9265 26.1329 21.9999 26.3281 22H28.664V8.00541C28.6677 6.94994 28.3199 5.9232 27.6752 5.08676C28.1618 5.21738 28.5021 5.40786 28.7419 5.63877C29.1756 6.05472 29.4427 6.75523 29.4427 8.00541L29.744 12.2193C29.5611 12.5031 29.4427 12.9478 29.4427 13.4478C29.4427 14.3069 29.7915 15.0027 30.2213 15.0027C30.6512 15.0027 31 14.3069 31 13.4478C31 12.9478 30.8816 12.5031 30.6987 12.2193L31 8.00541C31 6.57952 30.7018 5.36199 29.8211 4.51687C28.9514 3.68264 27.6752 3.36854 26.1046 3.3421C26.0454 3.34055 24.4251 3.34055 24.3815 3.34055V3.34599C24.3094 3.34241 24.2372 3.3406 24.165 3.34055H12.7017C11.1958 3.34055 10.0582 3.11663 9.10433 2.82119L8.9852 2.66103V2.66103Z" fill="#333333"/>
</svg>
