<svg width="33" height="18" viewBox="0 0 33 18" fill="none" xmlns="http://www.w3.org/2000/svg">
<path d="M5.5275 9.81818C7.491 9.81818 7.8705 11.4545 11.022 11.4545C14.2395 11.4545 14.4375 6.54545 16.4835 6.54545C18.447 6.54545 18.8595 11.4545 22.011 11.4545C25.2285 11.4545 25.4595 9.81818 27.5055 9.81818C29.469 9.81818 29.8155 11.4218 32.967 11.4545V8.18182C31.0035 8.18182 30.624 6.54545 27.4725 6.54545C24.255 6.54545 24.024 8.18182 21.978 8.18182C20.0145 8.18182 19.635 6.54545 16.4835 6.54545C13.266 6.54545 13.035 8.18182 10.989 8.18182C9.0255 8.18182 8.646 6.54545 5.4945 6.54545C2.277 6.54545 2.046 8.18182 0 8.18182V11.4545C3.135 11.4545 3.5805 9.81818 5.5275 9.81818ZM27.5055 13.0909C24.288 13.0909 24.057 14.7273 22.011 14.7273C20.0475 14.7273 19.668 13.0909 16.5165 13.0909C13.299 13.0909 13.0515 14.7273 11.0055 14.7273C8.9595 14.7273 8.7285 13.0909 5.511 13.0909C2.2935 13.0909 2.046 14.7273 0 14.7273V18C3.2175 18 3.4815 16.3636 5.511 16.3636C7.557 16.3636 7.788 18 11.0055 18C14.223 18 14.4705 13.0909 16.5165 13.0909C18.48 13.0909 18.8595 18 22.011 18C25.212 18 25.4595 16.3636 27.5055 16.3636C29.469 16.3636 29.8485 18 33 18V14.7273C30.954 14.7273 30.723 13.0909 27.5055 13.0909ZM5.5275 3.27273C7.491 3.27273 7.8705 4.90909 11.022 4.90909C14.2395 4.90909 14.454 0 16.5 0C18.4635 0 18.8595 4.90909 22.011 4.90909C25.2285 4.90909 25.4595 3.27273 27.5055 3.27273C29.469 3.27273 29.8155 4.87636 32.967 4.90909V1.63636C31.0035 1.63636 30.624 0 27.4725 0C24.255 0 24.024 1.63636 21.978 1.63636C20.0145 1.63636 19.635 0 16.4835 0C13.266 0 13.035 1.63636 10.989 1.63636C9.0255 1.63636 8.646 0 5.4945 0C2.277 0 2.046 1.63636 0 1.63636V4.90909C3.135 4.90909 3.5805 3.27273 5.5275 3.27273Z" fill="#333333"/>
</svg>
