<svg width="22" height="26" viewBox="0 0 22 26" fill="none" xmlns="http://www.w3.org/2000/svg">
<path d="M21.5586 4.9428C21.4612 4.83162 21.342 4.74173 21.2083 4.67875C21.0746 4.61577 20.9293 4.58107 20.7816 4.5768C18.4866 4.5168 15.5826 2.0628 13.6626 1.0998C12.4766 0.506801 11.6936 0.115801 11.1056 0.0128014C10.9862 -0.004596 10.8649 -0.00425902 10.7456 0.0138014C10.1576 0.116801 9.3746 0.507801 8.1896 1.1008C6.2696 2.0628 3.3656 4.5178 1.0706 4.5768C0.922774 4.58129 0.777441 4.61609 0.643613 4.67904C0.509784 4.742 0.390313 4.83178 0.292604 4.9428C0.0900769 5.17194 -0.0144167 5.47141 0.00160396 5.7768C0.494604 15.7998 4.0896 22.0028 10.3976 25.6078C10.5616 25.7008 10.7436 25.7488 10.9246 25.7488C11.1056 25.7488 11.2876 25.7008 11.4526 25.6078C17.7606 22.0028 21.3546 15.7998 21.8486 5.7768C21.8656 5.47146 21.7613 5.17176 21.5586 4.9428V4.9428ZM10.9256 17.9718C9.31919 17.9718 7.77857 17.3337 6.64266 16.1977C5.50675 15.0618 4.8686 13.5212 4.8686 11.9148C4.8686 10.3084 5.50675 8.76776 6.64266 7.63186C7.77857 6.49595 9.31919 5.8578 10.9256 5.8578C12.532 5.8578 14.0726 6.49595 15.2085 7.63186C16.3445 8.76776 16.9826 10.3084 16.9826 11.9148C16.9826 13.5212 16.3445 15.0618 15.2085 16.1977C14.0726 17.3337 12.532 17.9718 10.9256 17.9718ZM13.4056 8.4238L7.4346 14.3948C6.91479 13.6722 6.63433 12.8049 6.6326 11.9148C6.63419 10.7767 7.087 9.6857 7.89175 8.88095C8.6965 8.0762 9.78752 7.62339 10.9256 7.6218C11.8516 7.6218 12.7026 7.9228 13.4056 8.4238V8.4238ZM14.4156 9.4348C14.9166 10.1368 15.2186 10.9898 15.2186 11.9148C15.217 13.0529 14.7642 14.1439 13.9595 14.9487C13.1547 15.7534 12.0637 16.2062 10.9256 16.2078C10.0354 16.2062 9.16815 15.9257 8.4456 15.4058L14.4156 9.4348V9.4348Z" fill="#333333"/>
</svg>
