<svg width="25" height="25" viewBox="0 0 25 25" fill="none" xmlns="http://www.w3.org/2000/svg">
<path d="M5.36357 2.03425C7.18096 0.819892 9.29399 0.121824 11.4771 0.0145486C13.6602 -0.0927265 15.8315 0.394818 17.7592 1.42514C19.6869 2.45547 21.2986 3.9899 22.4224 5.86467C23.5462 7.73944 24.1398 9.88416 24.1399 12.0699V12.1268C22.6173 11.7794 20.7981 11.5354 18.9686 11.6759C17.8184 11.7647 16.6381 12.0087 15.5199 12.4907C15.4909 11.6598 15.1627 10.8674 14.5957 10.2594C14.018 9.44031 13.1472 8.19878 14.337 7.12107C15.5818 6.00668 16.6721 4.73086 17.5788 3.3275C15.9318 2.28074 14.0209 1.72451 12.0695 1.72386H11.7505L11.7936 1.87905L11.8445 1.97131C12.5635 3.28181 13.3429 4.70095 12.8713 6.66411C12.4954 8.23585 11.0272 8.73333 9.93565 9.10234L9.90547 9.11268C9.53096 9.21063 9.17342 9.36469 8.84501 9.56964C8.41392 10.1473 8.53463 10.7249 8.75879 11.5871C8.93545 12.0165 9.01471 12.4796 8.99085 12.9433C8.967 13.4069 8.84063 13.8595 8.62084 14.2685C8.42631 14.5512 8.16992 14.7859 7.87114 14.9547C7.57236 15.1235 7.23905 15.222 6.89651 15.2427C6.60508 15.2403 6.31779 15.3118 6.06148 15.4505C5.80516 15.5892 5.58819 15.7906 5.43082 16.0359C4.74109 16.9585 4.95663 18.7173 5.09458 19.6915C6.76305 21.2287 8.89324 22.1706 11.153 22.3703L11.1884 22.3729C11.0004 22.9248 10.8699 23.4945 10.7987 24.0731C8.33186 23.8118 6.00547 22.7967 4.13608 21.1661C2.26669 19.5355 0.945087 17.3685 0.351122 14.96C-0.242844 12.5516 -0.0803274 10.0186 0.816555 7.70574C1.71344 5.39291 3.30113 3.41259 5.36357 2.03425V2.03425ZM14.1189 21.8168C14.7853 22.5143 15.9975 23.2782 18.1047 23.2782C21.8068 23.2782 22.9656 18.5104 23.4924 16.3437C23.5786 15.9877 23.6476 15.7014 23.7088 15.5186C23.8398 15.1272 24.1769 14.8375 24.5554 14.6185C25.1503 14.2771 25.1641 13.7219 24.5002 13.5477C21.3714 12.7278 16.7149 12.27 13.7938 15.1901C12.5834 16.4006 12.6023 17.987 12.8515 19.1449C12.9015 19.0742 12.9524 19.0044 13.005 18.9337C14.362 17.0973 16.3493 15.3902 18.9712 14.478C19.1316 14.4273 19.3055 14.4411 19.4559 14.5166C19.6062 14.592 19.7213 14.7231 19.7766 14.882C19.832 15.0409 19.8232 15.215 19.7521 15.3676C19.6811 15.5201 19.5534 15.6389 19.3962 15.6988C17.0597 16.5119 15.2751 18.0379 14.0447 19.7028C12.817 21.365 12.1738 23.123 12.0695 24.3775C12.0757 24.5422 12.1445 24.6984 12.2619 24.8141C12.3794 24.9298 12.5366 24.9962 12.7014 24.9998C12.8663 25.0035 13.0262 24.944 13.1487 24.8336C13.2711 24.7232 13.3468 24.5702 13.3602 24.4059C13.4205 23.6239 13.6706 22.7247 14.1189 21.8177V21.8168Z" fill="#333333"/>
</svg>
