<svg width="25" height="28" viewBox="0 0 25 28" fill="none" xmlns="http://www.w3.org/2000/svg">
<path d="M12.5004 0.00252165C14.2742 -0.0637526 15.6478 1.19151 17.1353 1.98025C19.1584 3.20852 21.2416 4.34162 23.2244 5.63357C24.5213 6.71321 25.1172 8.45051 24.981 10.1282C24.9734 13.1027 24.996 16.078 24.9696 19.0521C24.8016 20.8529 23.5824 22.3812 22.0136 23.1345C19.4951 24.615 16.9913 26.123 14.4636 27.5862C12.8567 28.3366 10.9545 28.021 9.53299 27.0057C7.02186 25.5117 4.49519 24.0442 1.99392 22.5336C0.55509 21.4844 -0.12792 19.6389 0.0197386 17.8707C0.0272897 14.8961 0.00463661 11.9209 0.0311479 8.94683C0.199255 7.14614 1.41822 5.61749 2.98724 4.86448C5.50581 3.38431 8.01 1.87734 10.5376 0.413998C11.1494 0.122933 11.829 0.00444098 12.5003 0.00246517L12.5004 0.00252165ZM14.082 7.49309H10.9182V20.5063H14.082V7.49309V7.49309ZM10.1008 10.3255H6.93863V20.5063H10.1008V10.3255ZM18.0626 15.6365H14.8994V20.5063H18.0626V15.6364V15.6365Z" fill="#333333"/>
</svg>
