<svg width="100%" height="100%" xmlns="http://www.w3.org/2000/svg" fill="#FFFFFF">
    <svg xmlns="http://www.w3.org/2000/svg" viewBox="0 0 106 297" preserveAspectRatio="xMinYMax meet">   
        <path d="M105.81,270.64,44.71,6.49A8.39,8.39,0,0,0,36.54,0H8.39A8.38,8.38,0,0,0,0,8.37V271.92H104.78A1,1,0,0,0,105.81,270.64ZM4.19,267.74V8.37a4.2,4.2,0,0,1,4.2-4.19H36.54a4.17,4.17,0,0,1,4.08,3.25l60.21,260.31Z"/>
         <path d="M17.14,112.62c1.09.87,2.22,1.74,3.35,2.57l1.24-1.69c-1.11-.81-2.22-1.66-3.29-2.51Z"/>
         <path d="M24,117.61c1.15.78,2.34,1.55,3.54,2.29l1.1-1.78c-1.18-.73-2.35-1.48-3.48-2.24Z"/>
         <path d="M31.12,122.06c1.21.69,2.46,1.37,3.7,2l1-1.86c-1.22-.64-2.45-1.3-3.64-2Z"/>
         <path d="M10.77,107.06c1,1,2.06,1.93,3.12,2.85l1.38-1.57c-1-.91-2.07-1.85-3.06-2.79Z"/>
         <path d="M38.59,126c1.27.61,2.54,1.2,3.83,1.77l.84-1.92c-1.26-.56-2.52-1.13-3.76-1.73Z"/>
         <path d="M4.93,100.94c.92,1,1.87,2.1,2.85,3.13l1.51-1.44c-.95-1-1.88-2-2.77-3.06Z"/>
         <path d="M46.3,129.38c1.31.52,2.62,1,3.94,1.52l.72-2c-1.3-.48-2.59-1-3.87-1.49Z"/>
         <path d="M58.23,133.57l.61-2q-2-.6-4-1.26l-.67,2C55.55,132.74,56.89,133.17,58.23,133.57Z"/>
         <path d="M66.37,135.79l.49-2c-1.35-.32-2.69-.67-4-1l-.55,2C63.64,135.11,65,135.46,66.37,135.79Z"/>
         <path d="M32.69,99.72c-1.13-.77-2.26-1.58-3.37-2.41L28.07,99c1.13.84,2.29,1.67,3.44,2.45Z"/>
         <path d="M39.72,104.09c-1.19-.67-2.38-1.38-3.56-2.11l-1.1,1.77c1.2.75,2.42,1.47,3.64,2.16Z"/>
         <path d="M26,94.77C25,93.91,23.9,93,22.86,92.11l-1.37,1.58c1.05.92,2.14,1.83,3.24,2.71Z"/>
         <path d="M8.57,77.13C7.71,76.06,6.86,75,6,73.85L4.36,75.09c.83,1.13,1.7,2.25,2.57,3.35Z"/>
         <path d="M54.8,110.83c-1.3-.44-2.61-.91-3.88-1.42l-.77,2c1.31.52,2.65,1,4,1.45Z"/>
         <path d="M47.1,107.81c-1.24-.56-2.5-1.15-3.73-1.78l-.94,1.87c1.26.64,2.54,1.25,3.82,1.82Z"/>
         <path d="M62.74,113.06c-1.34-.3-2.68-.64-4-1l-.56,2c1.35.38,2.73.73,4.1,1Z"/>
         <path d="M19.79,89.33c-1-1-2-1.92-3-2.9L15.34,87.9c1,1,2,2,3,2.95Z"/>
         <path d="M14,83.43c-.93-1-1.86-2.06-2.75-3.1L9.62,81.69c.91,1.06,1.85,2.12,2.8,3.15Z"/>
         <path d="M10.05,271.92H0V296.5H11.5V271.92Zm-9,1.05H5.6l-4.55,4.55Zm9.41,20.24-2.25,2.24H1.05v-2l9.41-9.41Zm0-12.55-9.41,9.41v-9.14l8-8h1.45Z"/>
    </svg>
</svg>