<svg width="100%" height="100%" xmlns="http://www.w3.org/2000/svg" fill="#DEDEDE">
    <svg xmlns="http://www.w3.org/2000/svg" viewBox="0 0 111 297" preserveAspectRatio="xMinYMax meet">   
         <path d="M110.57,270.64,49.61,6.49A8.38,8.38,0,0,0,41.45,0H8.37A8.37,8.37,0,0,0,0,8.37V271.92H109.55A1,1,0,0,0,110.57,270.64ZM4.18,267.74V8.37A4.2,4.2,0,0,1,8.37,4.18H41.45a4.17,4.17,0,0,1,4.08,3.25L105.6,267.74Z"/>
         <path d="M22,109.62c1.09.87,2.22,1.74,3.35,2.57l1.24-1.69c-1.11-.81-2.22-1.66-3.29-2.51Z"/>
         <path d="M28.82,114.61c1.16.78,2.35,1.55,3.55,2.29l1.1-1.78c-1.18-.73-2.35-1.48-3.48-2.24Z"/>
         <path d="M36,119.06c1.21.69,2.46,1.37,3.7,2l1-1.86c-1.22-.64-2.45-1.3-3.64-2Z"/>
         <path d="M15.65,104.06c1,1,2.06,1.93,3.12,2.85l1.38-1.57c-1-.91-2.07-1.85-3.06-2.79Z"/>
         <path d="M4.61,91.25c.8,1.15,1.65,2.29,2.52,3.41l1.65-1.28c-.85-1.09-1.68-2.21-2.46-3.32Z"/>
         <path d="M43.47,123c1.27.61,2.54,1.2,3.83,1.77l.84-1.92c-1.26-.56-2.52-1.13-3.76-1.73Z"/>
         <path d="M9.81,97.94c.92,1,1.87,2.1,2.85,3.13l1.51-1.44c-.95-1-1.88-2-2.77-3.06Z"/>
         <path d="M51.18,126.38c1.31.52,2.62,1,3.94,1.52l.72-2c-1.3-.48-2.59-1-3.87-1.49Z"/>
         <path d="M63.11,130.57l.61-2q-2-.6-4-1.26l-.67,2C60.43,129.74,61.77,130.17,63.11,130.57Z"/>
         <path d="M71.25,132.79l.49-2c-1.35-.32-2.69-.67-4-1l-.55,2C68.52,132.11,69.88,132.46,71.25,132.79Z"/>
         <path d="M37.57,96.72c-1.13-.77-2.26-1.58-3.37-2.41L33,96c1.13.84,2.29,1.67,3.44,2.45Z"/>
         <path d="M44.6,101.09c-1.19-.67-2.38-1.38-3.56-2.11l-1.1,1.77c1.2.75,2.42,1.47,3.64,2.16Z"/>
         <path d="M8.5,67.48C7.71,66.34,7,65.19,6.2,64L4.44,65.15C5.19,66.32,6,67.5,6.78,68.66Z"/>
         <path d="M30.92,91.77c-1.07-.86-2.14-1.76-3.18-2.66l-1.37,1.58c1.05.92,2.14,1.83,3.24,2.71Z"/>
         <path d="M13.45,74.13c-.86-1.07-1.71-2.18-2.53-3.28L9.24,72.09c.83,1.13,1.7,2.25,2.57,3.35Z"/>
         <path d="M59.68,107.83c-1.3-.44-2.61-.91-3.88-1.42l-.77,2c1.31.52,2.65,1,4,1.45Z"/>
         <path d="M52,104.81c-1.24-.56-2.5-1.15-3.73-1.78l-.94,1.87c1.26.64,2.54,1.25,3.82,1.82Z"/>
         <path d="M67.62,110.06c-1.34-.3-2.68-.64-4-1l-.56,2c1.35.38,2.73.73,4.1,1Z"/>
         <path d="M24.67,86.33c-1-1-2-1.92-3-2.9L20.22,84.9c1,1,2,2,3,2.95Z"/>
         <path d="M18.84,80.43c-.93-1-1.86-2.06-2.75-3.1L14.5,78.69c.91,1.06,1.85,2.12,2.8,3.15Z"/>
         <path d="M10.06,271.92H0V296.5H11.51V271.92Zm-9,1.05H5.6l-4.55,4.55Zm9.41,20.24-2.24,2.24H1.05v-2l9.41-9.41Zm0-12.55-9.41,9.41v-9.14l8-8h1.45Z"/>
    </svg>
</svg>