<svg width="100%" height="100%" xmlns="http://www.w3.org/2000/svg" fill="#FFFFFF">
    <svg xmlns="http://www.w3.org/2000/svg" viewBox="0 0 106 297" preserveAspectRatio="xMinYMax meet">   
        <path d="M105.8,283.13,42,6.78A8.76,8.76,0,0,0,33.41,0H8.76A8.76,8.76,0,0,0,0,8.75V284.47H104.74A1.09,1.09,0,0,0,105.8,283.13Zm-101.42-3V8.75A4.38,4.38,0,0,1,8.76,4.38H33.41a4.36,4.36,0,0,1,4.27,3.39l62.93,272.32Z"/>
         <path d="M13.1,106.68c1.14.91,2.32,1.81,3.51,2.68l1.29-1.76c-1.16-.85-2.31-1.74-3.43-2.63Z"/>
         <path d="M20.22,111.9c1.21.81,2.46,1.62,3.71,2.4l1.16-1.87c-1.24-.76-2.46-1.55-3.64-2.35Z"/>
         <path d="M27.73,116.55c1.27.72,2.57,1.43,3.87,2.11l1-1.94c-1.28-.67-2.56-1.36-3.81-2.07Z"/>
         <path d="M6.44,100.86c1.06,1,2.16,2,3.27,3l1.44-1.65c-1.09-.94-2.16-1.92-3.2-2.91Z"/>
         <path d="M35.54,120.64c1.33.64,2.66,1.26,4,1.85l.88-2c-1.32-.59-2.63-1.19-3.94-1.82Z"/>
         <path d="M43.61,124.21c1.37.55,2.74,1.08,4.12,1.59l.75-2.06q-2-.75-4-1.56Z"/>
         <path d="M56.09,128.6l.63-2.1q-2.07-.63-4.14-1.32l-.69,2.08C53.28,127.73,54.69,128.17,56.09,128.6Z"/>
         <path d="M64.6,130.91l.52-2.13c-1.41-.34-2.81-.7-4.22-1.08l-.57,2.11C61.75,130.2,63.18,130.57,64.6,130.91Z"/>
         <path d="M29.37,93.18c-1.18-.81-2.37-1.65-3.53-2.52l-1.3,1.76c1.18.88,2.39,1.74,3.6,2.56Z"/>
         <path d="M36.73,97.75c-1.24-.7-2.5-1.44-3.73-2.21L31.85,97.4c1.25.78,2.54,1.54,3.8,2.26Z"/>
         <path d="M22.42,88c-1.13-.91-2.24-1.85-3.33-2.79l-1.43,1.65c1.1,1,2.24,1.92,3.38,2.84Z"/>
         <path d="M52.5,104.8c-1.36-.45-2.72-1-4.06-1.48l-.8,2c1.37.54,2.77,1,4.16,1.52Z"/>
         <path d="M44.45,101.65c-1.3-.59-2.62-1.21-3.9-1.86l-1,1.95c1.32.67,2.66,1.31,4,1.91Z"/>
         <path d="M60.81,107.13c-1.4-.31-2.81-.67-4.18-1l-.6,2.1c1.42.4,2.86.77,4.3,1.09Z"/>
         <path d="M15.88,82.31c-1.05-1-2.09-2-3.11-3l-1.55,1.54c1,1,2.09,2.08,3.16,3.08Z"/>
         <path d="M9.78,76.14C8.8,75.08,7.84,74,6.9,72.89L5.24,74.32c1,1.11,1.94,2.22,2.93,3.3Z"/>
    </svg>
</svg>