<svg width="100%" height="100%" xmlns="http://www.w3.org/2000/svg" fill="#DEDEDE">
    <svg xmlns="http://www.w3.org/2000/svg" viewBox="0 0 106 297" preserveAspectRatio="xMinYMax meet">   
         <path d="M39.67,4a4,4,0,0,1,3.9,3.11l57.49,249.11H4V8A4,4,0,0,1,8,4H39.67m0-4H8A8,8,0,0,0,0,8V260.22H104.83a1,1,0,0,0,1-1.23L47.47,6.21A8,8,0,0,0,39.67,0Z"/>
         <path d="M98.26,260.22H94.33V296.5h10V260.22Zm-3,2.94,2.11-2.06h6.08v1.83l-8.19,8Zm8.19,31.63-.85.83H95.24V295l8.19-8Zm-8.19-2.66V284.4l8.19-8v7.74Zm8.19-18.58-2.22,2.16-6,5.8v-7.73l8.19-8Z"/>
    </svg>
</svg>