<svg width="100%" height="100%" xmlns="http://www.w3.org/2000/svg" fill="#DEDEDE">
    <svg xmlns="http://www.w3.org/2000/svg" viewBox="0 0 106 297" preserveAspectRatio="xMinYMax meet">   
         <g>
            <g>
                <path d="M39.64,4a4,4,0,0,1,3.89,3.1L101,256H4V8A4,4,0,0,1,8,4H39.64m0-4H8A8,8,0,0,0,0,8V260H104.74a1,1,0,0,0,1-1.22L47.43,6.2A8,8,0,0,0,39.64,0Z"/>
                <path d="M98.18,260H94.25v36.25h10V260Zm-3,2.94,2.11-2.06h6.07v1.83l-8.18,8Zm8.18,31.6-.85.83H95.16v-.6l8.18-8Zm-8.18-2.66v-7.72l8.18-8v7.73Zm8.18-18.56-2.21,2.15-6,5.81v-7.73l8.18-8Z"/>
            </g>
        </g>
    </svg>
</svg>