<svg width="100%" height="100%" xmlns="http://www.w3.org/2000/svg" fill="#DEDEDE">
    <svg xmlns="http://www.w3.org/2000/svg" viewBox="0 0 322 297" preserveAspectRatio="xMaxYMax meet">   
         <g>
            <g>
                <path d="M317,256h-2.76l-1,0a48.08,48.08,0,0,1-46.91-45s-.09-1.76-.1-2.17,0-1.23,0-1.83h0V124.91a13.9,13.9,0,0,1,2.41-7.85l30.51-45c2.23-3.28,2.71-6.5,1.34-9.07s-4.29-4-8.26-4h-112c-4,0-6.9,1.41-8.26,4s-.89,5.79,1.34,9.07l30.51,45a13.9,13.9,0,0,1,2.41,7.85V237h-113a12,12,0,0,1-12-12V12a11.86,11.86,0,0,0-2-6.6h0A12,12,0,0,0,69.28,0h-32a12,12,0,0,0-12,12V237a44,44,0,0,0,44,44H0v4H212.4a24.28,24.28,0,0,1-2.9-4h0a24.64,24.64,0,0,1-1.85-4H69.29a40,40,0,0,1-40-40V12a8,8,0,0,1,8-8h32a8,8,0,0,1,8,7.86h0c0-.14,0-.27,0-.41,0,.18,0,.36,0,.55V225a16,16,0,0,0,16,16h117V124.91a17.93,17.93,0,0,0-3.1-10.1l-30.51-45c-1.34-2-1.74-3.78-1.12-5S177.9,63,180.28,63h112c2.38,0,4.1.68,4.73,1.85s.22,3-1.12,5l-30.51,45a17.93,17.93,0,0,0-3.1,10.1V208a52,52,0,0,0,52,52H321v-4Z"/>
                <path d="M163.65,223.25h-9.29v61h11v-61Zm-8.29,1h7.29l-.37.37-1.44,1.44-5.48,5.48Zm0,10.55,6.92-6.92,1.82-1.82.26-.26v8.74l-2.08,2.08-6.92,6.92Zm0,12,6.92-6.92,2.08-2.08v8.74l-2.08,2.08-6.92,6.92Zm0,12,6.92-6.92,2.08-2.08v8.74l-2.08,2.08-6.92,6.92Zm0,12,6.92-6.92,2.08-2.08v8.74l-2.08,2.08-1.44,1.44-5.48,5.48Zm9,11.74-.71.71h-8.29v-.45l6.92-6.92,1.82-1.82.26-.26Z"/>
                <path d="M53.33,106.17a14,14,0,1,1-14,14,14,14,0,0,1,14-14m0-2a16,16,0,1,0,16,16,16,16,0,0,0-16-16Z"/>
                <path d="M53.33,164.67a14,14,0,1,1-14,14,14,14,0,0,1,14-14m0-2a16,16,0,1,0,16,16,16,16,0,0,0-16-16Z"/>
                <path d="M53.33,222.17a14,14,0,1,1-14,14,14,14,0,0,1,14-14m0-2a16,16,0,1,0,16,16,16,16,0,0,0-16-16Z"/>
                <path d="M3.82,285H0v11.25H11V285ZM10,295.25H5.57L6.82,294,10,290.82Zm-5-2.69L3.56,294l-1.25,1.25H1v-7.43L2.82,286H10v1.56Z"/>
            </g>
        </g>
    </svg>
</svg>