<svg width="100%" height="100%" xmlns="http://www.w3.org/2000/svg" fill="#DEDEDE">
    <svg xmlns="http://www.w3.org/2000/svg" viewBox="0 0 116 285" preserveAspectRatio="xMinYMax meet" y="0">   
        <path d="M115.67,283.13,51.89,6.78A8.74,8.74,0,0,0,43.37,0H8.75A8.75,8.75,0,0,0,0,8.75V284.47H114.6A1.1,1.1,0,0,0,115.67,283.13Zm-111.29-3V8.75A4.37,4.37,0,0,1,8.75,4.38H43.37a4.35,4.35,0,0,1,4.26,3.39l62.84,272.32Z"/>
         <path d="M23,114.68c1.14.91,2.33,1.81,3.51,2.68l1.29-1.76c-1.16-.85-2.31-1.74-3.43-2.63Z"/>
         <path d="M30.15,119.9c1.21.81,2.46,1.62,3.71,2.4L35,120.43c-1.24-.76-2.46-1.55-3.64-2.35Z"/>
         <path d="M37.66,124.55c1.27.72,2.57,1.43,3.87,2.11l1-1.94c-1.28-.67-2.56-1.36-3.81-2.07Z"/>
         <path d="M16.37,108.86c1.06,1,2.16,2,3.27,3l1.44-1.65c-1.09-.94-2.16-1.92-3.2-2.91Z"/>
         <path d="M4.82,95.46c.84,1.2,1.72,2.4,2.64,3.57l1.72-1.35c-.89-1.14-1.75-2.31-2.56-3.47Z"/>
         <path d="M45.48,128.64c1.32.64,2.65,1.26,4,1.85l.88-2c-1.32-.59-2.63-1.19-3.94-1.82Z"/>
         <path d="M10.27,102.45c1,1.11,2,2.21,3,3.28l1.59-1.51c-1-1-2-2.12-2.91-3.2Z"/>
         <path d="M53.54,132.21c1.37.55,2.74,1.08,4.12,1.59l.76-2.06c-1.36-.5-2.71-1-4.06-1.56Z"/>
         <path d="M66,136.6l.64-2.1c-1.39-.42-2.77-.86-4.15-1.32l-.69,2.08C63.21,135.73,64.62,136.17,66,136.6Z"/>
         <path d="M74.54,138.91l.51-2.13c-1.41-.34-2.81-.7-4.21-1.08l-.58,2.11C71.68,138.2,73.11,138.57,74.54,138.91Z"/>
         <path d="M39.3,101.18c-1.18-.81-2.37-1.65-3.53-2.52l-1.3,1.76c1.18.88,2.39,1.74,3.6,2.56Z"/>
         <path d="M46.66,105.75c-1.24-.7-2.5-1.44-3.73-2.21l-1.15,1.86c1.25.78,2.54,1.54,3.81,2.26Z"/>
         <path d="M8.89,70.59c-.82-1.19-1.62-2.4-2.4-3.61L4.65,68.16c.78,1.22,1.61,2.46,2.44,3.67Z"/>
         <path d="M32.35,96c-1.12-.91-2.24-1.85-3.33-2.79l-1.43,1.65c1.1,1,2.24,1.92,3.38,2.84Z"/>
         <path d="M14.07,77.55c-.9-1.12-1.79-2.28-2.65-3.44L9.66,75.42q1.32,1.77,2.7,3.5Z"/>
         <path d="M62.43,112.8c-1.36-.45-2.72-1-4.06-1.48l-.8,2c1.37.54,2.77,1,4.16,1.52Z"/>
         <path d="M54.38,109.65c-1.3-.59-2.62-1.21-3.9-1.86l-1,1.95c1.32.67,2.66,1.31,4,1.91Z"/>
         <path d="M70.74,115.13c-1.4-.31-2.81-.67-4.18-1l-.6,2.1c1.42.4,2.86.77,4.3,1.09Z"/>
         <path d="M25.81,90.31c-1-1-2.09-2-3.1-3l-1.56,1.54c1,1,2.09,2.08,3.16,3.08Z"/>
         <path d="M19.71,84.14c-1-1.06-1.94-2.16-2.88-3.25l-1.66,1.43c1,1.11,1.94,2.22,2.93,3.3Z"/>
    </svg>
</svg>