<svg width="100%" height="100%" xmlns="http://www.w3.org/2000/svg" fill="#DEDEDE">
    <svg xmlns="http://www.w3.org/2000/svg" viewBox="0 0 106 260" preserveAspectRatio="xMinYMax meet" y="0">   
         <g>
            <g>
                <path d="M105.72,258.78,47.43,6.2A8,8,0,0,0,39.64,0H8A8,8,0,0,0,0,8V260H104.74A1,1,0,0,0,105.72,258.78ZM4,256V8A4,4,0,0,1,8,4H39.64a4,4,0,0,1,3.89,3.1L101,256Z"/>
                <path d="M21.05,104.81q1.57,1.26,3.21,2.46l1.18-1.62c-1.06-.77-2.12-1.58-3.14-2.4Z"/>
                <path d="M27.56,109.59c1.1.74,2.24,1.48,3.39,2.19l1.05-1.7c-1.12-.7-2.24-1.42-3.32-2.15Z"/>
                <path d="M34.42,113.84c1.16.66,2.35,1.31,3.54,1.93l.93-1.77c-1.17-.62-2.34-1.25-3.48-1.9Z"/>
                <path d="M15,99.5c1,.92,2,1.84,3,2.73l1.31-1.51c-1-.87-2-1.76-2.92-2.67Z"/>
                <path d="M4.41,87.25c.76,1.09,1.57,2.19,2.4,3.26l1.58-1.23c-.81-1-1.6-2.11-2.34-3.17Z"/>
                <path d="M41.56,117.58c1.21.58,2.43,1.14,3.67,1.69l.8-1.83c-1.21-.54-2.41-1.09-3.6-1.66Z"/>
                <path d="M9.38,93.64c.88,1,1.79,2,2.72,3l1.45-1.38c-.91-1-1.8-1.94-2.65-2.93Z"/>
                <path d="M48.94,120.84c1.25.5,2.5,1,3.76,1.45l.69-1.88c-1.24-.46-2.47-.93-3.7-1.43Z"/>
                <path d="M60.34,124.85l.58-1.91c-1.26-.39-2.53-.79-3.78-1.21l-.64,1.9C57.78,124.05,59.06,124.46,60.34,124.85Z"/>
                <path d="M68.12,127l.47-1.94c-1.28-.31-2.57-.64-3.85-1L64.22,126C65.52,126.31,66.82,126.65,68.12,127Z"/>
                <path d="M35.92,92.48c-1.08-.74-2.16-1.51-3.22-2.3l-1.2,1.6c1.09.81,2.19,1.6,3.3,2.35Z"/>
                <path d="M42.65,96.65c-1.14-.64-2.29-1.31-3.41-2l-1.06,1.69c1.15.72,2.32,1.41,3.48,2.07Z"/>
                <path d="M8.13,64.52c-.75-1.09-1.49-2.19-2.2-3.3L4.25,62.3c.72,1.12,1.47,2.24,2.23,3.35Z"/>
                <path d="M29.56,87.75c-1-.83-2-1.68-3-2.55l-1.32,1.51c1,.88,2.05,1.75,3.1,2.6Z"/>
                <path d="M12.86,70.88c-.82-1-1.64-2.08-2.42-3.14L8.83,68.93c.8,1.08,1.63,2.15,2.46,3.2Z"/>
                <path d="M57.06,103.1c-1.24-.42-2.49-.87-3.71-1.35l-.73,1.86c1.25.49,2.53,1,3.8,1.39Z"/>
                <path d="M49.7,100.22c-1.19-.54-2.39-1.11-3.56-1.7l-.91,1.78c1.21.61,2.43,1.2,3.66,1.74Z"/>
                <path d="M64.66,105.23c-1.28-.29-2.57-.61-3.83-1l-.54,1.93c1.29.36,2.61.7,3.92,1Z"/>
                <path d="M23.59,82.54c-1-.9-1.91-1.83-2.84-2.77l-1.42,1.41c.94.95,1.91,1.9,2.89,2.82Z"/>
                <path d="M18,76.9c-.9-1-1.78-2-2.64-3l-1.52,1.3c.87,1,1.78,2,2.68,3Z"/>
            </g>
        </g>
    </svg>
</svg>