<svg width="100%" height="100%" xmlns="http://www.w3.org/2000/svg" fill="white">
    <svg xmlns="http://www.w3.org/2000/svg" viewBox="0 0 322 297" preserveAspectRatio="xMaxYMax meet">   
         <path d="M317.3,256.22h-2.75c-.34,0-.67,0-1,0a48.09,48.09,0,0,1-46.94-45s-.1-1.76-.1-2.18,0-1.23,0-1.83h0V125a14,14,0,0,1,2.42-7.87l30.53-45c2.23-3.29,2.71-6.52,1.35-9.09s-4.3-4-8.27-4H180.43c-4,0-6.91,1.42-8.27,4s-.88,5.8,1.35,9.09l30.53,45a14,14,0,0,1,2.41,7.87V237.2H93.36a12,12,0,0,1-12-12V12a11.92,11.92,0,0,0-2-6.61h0a12,12,0,0,0-10-5.4h-32a12,12,0,0,0-12,12V237.19a44,44,0,0,0,44,44.05H0v4H212.58a24.28,24.28,0,0,1-2.9-4h0a23.15,23.15,0,0,1-1.85-4H69.34a40,40,0,0,1-40-40V12a8,8,0,0,1,8-8h32a8,8,0,0,1,8,7.87h0c0-.14,0-.27,0-.41,0,.18,0,.36,0,.55V225.19a16,16,0,0,0,16,16h117.1V125a17.94,17.94,0,0,0-3.11-10.11l-30.53-45c-1.34-2-1.75-3.78-1.12-5s2.35-1.86,4.73-1.86h112.1c2.38,0,4.1.68,4.73,1.86s.22,3-1.12,5l-30.53,45A17.87,17.87,0,0,0,262.5,125v83.16a52,52,0,0,0,52.05,52h6.76v-4Z"/>
         <path d="M163.78,223.44h-9.29v61.05h11V223.44Zm-8.29,1h7.29l-.37.37L161,226.25l-5.48,5.48Zm0,10.55,6.92-6.92,1.83-1.82.26-.26v8.75l-2.09,2.08-6.92,6.92Zm0,12,6.92-6.92L164.5,238v8.74l-2.09,2.09-6.92,6.92Zm0,12,6.92-6.92L164.5,250v8.74l-2.09,2.09-6.92,6.92Zm0,12,6.92-6.92L164.5,262v8.74l-2.09,2.09L161,274.29l-5.48,5.48Zm9,11.76-.72.71h-8.29V283l6.92-6.92,1.83-1.82.26-.26Z"/>
         <path d="M53.37,106.26a14,14,0,1,1-14,14,14,14,0,0,1,14-14m0-2a16,16,0,1,0,16,16,16,16,0,0,0-16-16Z"/>
         <path d="M53.37,164.81a14,14,0,1,1-14,14,14,14,0,0,1,14-14m0-2a16,16,0,1,0,16,16,16,16,0,0,0-16-16Z"/>
         <path d="M53.37,222.35a14,14,0,1,1-14,14,14,14,0,0,1,14-14m0-2a16,16,0,1,0,16,16,16,16,0,0,0-16-16Z"/>
         <path d="M3.82,285.24H0V296.5H11V285.24ZM10,295.5H5.58l1.25-1.25L10,291.07Zm-5-2.69-1.43,1.44L2.31,295.5H1v-7.44l1.82-1.82H10v1.57Z"/>
    </svg>
</svg>