<svg id="icones" xmlns="http://www.w3.org/2000/svg" viewBox="0 0 24 24"><title>abastecimento</title><path d="M21.27,18.85a2,2,0,0,0,1-1.42v-.51l0-.13a.78.78,0,0,1,0-.14,1.74,1.74,0,0,0-.85-1.09c-.06,0-.06,0-.06-.12v-.28c0-1.18,0-2.36,0-3.53a4.68,4.68,0,0,0-2.11-4,4.64,4.64,0,0,0-2.68-.81h-.4V6.45a1.72,1.72,0,0,0-.43-1.19,1.69,1.69,0,0,0-1.32-.57h-1V4.24H16a.85.85,0,0,0,.92-.83.8.8,0,0,0-.23-.58A.94.94,0,0,0,16,2.57H9a1,1,0,0,0-.68.25A.84.84,0,0,0,9,4.24h2.67v.45h-.35c-.28,0-.56,0-.83,0A1.66,1.66,0,0,0,8.94,6.32v.51H8.76c-.35,0-.69,0-1,0A1.88,1.88,0,0,0,6,5.78H6A1.86,1.86,0,0,0,4.31,6.84H3.42V6.67a.85.85,0,0,0-.68-.88.87.87,0,0,0-1,.57l0,.06v7.33l0,.1a.88.88,0,0,0,.71.6.84.84,0,0,0,.94-.8v-.27H4c.19,0,.3,0,.46.24a1.83,1.83,0,0,0,1.65.84,2,2,0,0,0,1.63-1.08h6.83V14c0,.5,0,1,0,1.52a1.84,1.84,0,0,0-1,1.68,1.9,1.9,0,0,0,1,1.7c0,.26,0,.52,0,.79v.07h-.12a1,1,0,0,0-.68.27.78.78,0,0,0-.22.58.84.84,0,0,0,.9.83h6.86a1,1,0,0,0,.91-.58l0-.42,0-.09a.94.94,0,0,0-.95-.59h0v-.9ZM19.6,15.27H16.25V12.79a1,1,0,0,0-1.09-1.08H8V8.51h8.48a3.1,3.1,0,0,1,3.11,2.57,2.1,2.1,0,0,1,.05.51c0,1,0,2,0,2.93ZM15.41,17h4.87c.09,0,.3,0,.3.24s-.19.23-.3.23H15.5a.26.26,0,0,1-.23-.11.2.2,0,0,1,0-.2A.19.19,0,0,1,15.41,17ZM10.61,6.82a3.39,3.39,0,0,1,0-.45h3.75a.53.53,0,0,1,0,.15v.31Zm9,12.29v.63H16.26v-.63ZM5.8,12.59a.86.86,0,0,1,0-.16V7.8a.75.75,0,0,1,0-.21A.23.23,0,0,1,6,7.45H6a.23.23,0,0,1,.21.19,1.41,1.41,0,0,1,0,.21v4.62a.35.35,0,0,1-.1.27.22.22,0,0,1-.18,0A.21.21,0,0,1,5.8,12.59ZM4.1,8.53V11.7H3.43V8.53ZM4,13.13Z"/></svg>