<svg width="24" height="24" viewBox="0 0 24 24" fill="none" xmlns="http://www.w3.org/2000/svg">
<path d="M17.12 3.54996C16.6923 3.54737 16.2751 3.68194 15.9295 3.93391C15.584 4.18588 15.3283 4.54199 15.2 4.94996L14.4 7.49996C14.0316 7.51354 13.6689 7.5949 13.33 7.73996L11.5 5.76996L10.17 4.28996C9.97596 4.4677 9.8189 4.68197 9.70782 4.92051C9.59674 5.15905 9.53383 5.41716 9.52268 5.68006C9.51153 5.94296 9.55237 6.20547 9.64286 6.45256C9.73335 6.69964 9.8717 6.92644 10.05 7.11996L11.86 9.08996C11.7711 9.25279 11.6974 9.42353 11.64 9.59996C11.5874 9.77295 11.5506 9.95034 11.53 10.13L8.92 10.71L6.96 11.15C7.01679 11.4069 7.12371 11.6501 7.27464 11.8656C7.42557 12.0811 7.61755 12.2647 7.83957 12.4059C8.06159 12.5471 8.30929 12.6431 8.56848 12.6884C8.82766 12.7338 9.09325 12.7275 9.35 12.67L11.96 12.08C12.1548 12.3932 12.4056 12.6677 12.7 12.89L11.9 15.44L11.3 17.35C11.8052 17.5066 12.352 17.4567 12.8205 17.2112C13.289 16.9657 13.6412 16.5445 13.8 16.04L14.61 13.5C14.9784 13.4864 15.3411 13.405 15.68 13.26L17.5 15.23L18.83 16.7C19.2203 16.3427 19.4531 15.8454 19.4775 15.3168C19.5018 14.7883 19.3158 14.2716 18.96 13.88L17.15 11.91C17.2355 11.7468 17.3058 11.5761 17.36 11.4C17.4233 11.2247 17.4702 11.0439 17.5 10.86L20.09 10.28L22.04 9.84996C21.9252 9.33322 21.6102 8.88306 21.1641 8.59815C20.718 8.31323 20.1771 8.21679 19.66 8.32996L17.05 8.90996C16.8542 8.60036 16.6034 8.32922 16.31 8.10996L17.11 5.54996L17.71 3.64996C17.5195 3.58723 17.3206 3.55352 17.12 3.54996ZM14.56 8.99996C14.6925 9.00595 14.8237 9.02949 14.95 9.06996C15.3291 9.18951 15.6453 9.45466 15.829 9.80716C16.0128 10.1597 16.0491 10.5707 15.93 10.95C15.8105 11.3291 15.5453 11.6453 15.1928 11.829C14.8403 12.0128 14.4293 12.0491 14.05 11.93C13.6709 11.8104 13.3547 11.5453 13.171 11.1928C12.9872 10.8403 12.9509 10.4292 13.07 10.05C13.1681 9.73731 13.366 9.46539 13.6332 9.27578C13.9005 9.08617 14.2225 8.98929 14.55 8.99996H14.56ZM8 13.67C6.78 14.53 5.39 15 4 15H2V17H4C5.37 17 6.74 16.65 8 16C8.77 16.4 9.58 16.66 10.41 16.81L10.94 15.14L11.03 14.88C9.97 14.73 8.93 14.32 8 13.67ZM20.45 15C20.5 15.7 20.33 16.41 19.91 17C19.93 17 19.97 17 20 17H22V15H20.45ZM8 17.67C6.78 18.53 5.39 19 4 19H2V21H4C5.37 21 6.74 20.65 8 20C10.5 21.3 13.5 21.3 16 20C17.26 20.65 18.62 21 20 21H22V19H20C18.61 19 17.22 18.53 16 17.67C13.56 19.38 10.44 19.38 8 17.67Z" fill="#0D0D0D"/>
</svg>
