<svg id="icones" xmlns="http://www.w3.org/2000/svg" viewBox="0 0 24 24"><title>bacias</title><path d="M12,2a59,59,0,0,1,5.25,6.82l1.15-1.31c.29.34.58.65.86,1a20.66,20.66,0,0,1,2.28,3.28A3.46,3.46,0,0,1,21,16a3.62,3.62,0,0,1-1.71,1,.52.52,0,0,0-.3.26A7.49,7.49,0,0,1,4.66,16a8.86,8.86,0,0,1-.12-1c0-.33,0-.67,0-1a10.43,10.43,0,0,1-1.26-.8,3.44,3.44,0,0,1-.93-4.13,18,18,0,0,1,2.5-3.67c.24-.3.51-.58.82-.93L7.86,7.14Zm5.17,14.92-.31-.15A3.58,3.58,0,0,1,14.77,13a6.8,6.8,0,0,1,1.12-2.37.38.38,0,0,0,0-.5A52.93,52.93,0,0,0,12.13,5L12,4.85a.29.29,0,0,0-.08.07Q10.45,6.86,9,8.8a.42.42,0,0,0,0,.35,3.29,3.29,0,0,1,.29,1.51,3.62,3.62,0,0,1-2.69,3.28c-.16.05-.24.11-.24.29s0,.64,0,1A5.68,5.68,0,0,0,15,19.3,5.57,5.57,0,0,0,17.13,16.92Zm1.23-6.63a11.3,11.3,0,0,0-1.77,2.87,1.12,1.12,0,0,0-.06.44,1.84,1.84,0,0,0,2.2,1.67,1.74,1.74,0,0,0,1.38-2.13A10.84,10.84,0,0,0,18.36,10.29Zm-12.69-3a9.64,9.64,0,0,0-1.8,2.89,1.49,1.49,0,0,0-.05.36A1.82,1.82,0,0,0,7,11.7a1.64,1.64,0,0,0,.33-1.91A13.28,13.28,0,0,0,5.67,7.28Z"/></svg>