<svg id="icones" xmlns="http://www.w3.org/2000/svg" viewBox="0 0 24 24"><title>bacias</title><path d="M7.28,8l-.66.74a33.81,33.81,0,0,0-2.26,2.93C3.22,13.31,2,15.29,2,17.19a5.28,5.28,0,0,0,10.56,0c0-1.9-1.22-3.88-2.36-5.54A33.81,33.81,0,0,0,7.94,8.72L7.28,8m0,2.76a17,17,0,0,1,1.48,1.91c1.06,1.54,2,3.52,2,4.54a3.52,3.52,0,0,1-7,0c0-1,1-3,2-4.54A17,17,0,0,1,7.28,10.74Z"/><path d="M20.11,9.5a26.41,26.41,0,0,0-1.8-2.33l-.61-.68-.61.68a26.41,26.41,0,0,0-1.8,2.33A8.57,8.57,0,0,0,13.4,14,4.3,4.3,0,0,0,22,14,8.57,8.57,0,0,0,20.11,9.5ZM20.37,14A2.67,2.67,0,0,1,15,14a8.71,8.71,0,0,1,1.6-3.52,14.5,14.5,0,0,1,1-1.36l0,0,0,0a14.9,14.9,0,0,1,1,1.36A8.57,8.57,0,0,1,20.37,14Z"/><path d="M13.81,3.87a17.08,17.08,0,0,0-1.32-1.71l-.55-.63-.56.63a17.08,17.08,0,0,0-1.32,1.71,6.3,6.3,0,0,0-1.4,3.32,3.28,3.28,0,0,0,6.55,0A6.27,6.27,0,0,0,13.81,3.87Zm-.09,3.32a1.79,1.79,0,0,1-3.57,0,6.09,6.09,0,0,1,1.13-2.48c.31-.44.49-.67.66-.87.16.2.35.43.65.87A5.9,5.9,0,0,1,13.72,7.19Z"/></svg>