<svg id="icones" xmlns="http://www.w3.org/2000/svg" viewBox="0 0 24 24"><title>captacao</title><g id="mapa-captacao"><path d="M22,21c0-.5,0-.5-.5-.5-.3,0-.3,0-.3-.3V15.8a.22.22,0,0,1,.2-.2h.4c.1,0,.2,0,.2-.2V14.1c0-.1,0-.2-.2-.2h-.3c-.3,0-.3,0-.3-.3V7.8a5.49,5.49,0,0,0-2-3.7,5.15,5.15,0,0,0-3.6-1.3h-5.2c-.2,0-.2-.1-.2-.2V2.3a.22.22,0,0,0-.2-.2H9c-.4,0-.4,0-.4.5,0,.3,0,.3-.3.3H4c-.4,0-.4,0-.4-.4s.1-.4-.3-.4H2V9.9h1.4c.1,0,.1,0,.1-.1V9.3c0-.1,0-.1.1-.1h4.8c.1,0,.1,0,.1.1v.5c0,.1,0,.1.1.1h1.3c.1,0,.1,0,.1-.1V9.3c0-.1,0-.1.1-.1h4.5c.1,0,.1,0,.1.1v4.5c0,.1,0,.1-.1.1h-.5c-.1,0-.1,0-.1.1v1.3c0,.1,0,.1.1.1h.5c.1,0,.1,0,.1.1v4.8c0,.1,0,.1-.1.1h-.5c-.1,0-.1,0-.1.1v1.4h7.8C22.09,21.8,22,21.4,22,21ZM8.69,7.5c0,.1,0,.2-.2.2H3.69c-.1,0-.2,0-.2-.2V4.7c0-.1,0-.2.2-.2h4.8c.1,0,.2,0,.2.2Zm7.7.1h-6c-.2,0-.2,0-.2-.2V4.6c0-.1,0-.2.2-.2h5.5a3.8,3.8,0,0,1,3.8,3.8v5.5c0,.1,0,.2-.2.2h-2.8c-.1,0-.2,0-.2-.2v-6C16.59,7.7,16.49,7.6,16.39,7.6Zm3.3,12.8c0,.1,0,.2-.2.2h-2.8c-.1,0-.2,0-.2-.2V15.6c0-.1,0-.2.2-.2h2.8c.1,0,.2,0,.2.2Z"/></g></svg>