<svg id="icones" xmlns="http://www.w3.org/2000/svg" viewBox="0 0 24 24"><title>eta</title><path d="M12.68,3a1,1,0,0,0-1.42,0L2.78,10.54c-.22.2-.44.38-.66.57l-.31.27-.09.12v.21L2.89,13l1.37-1.22v8.47a1,1,0,0,0,1.11,1.11h13.2a1,1,0,0,0,1.11-1.12V11.76L21.06,13l1.1-1.24.12-.25Zm5.1,15v1.51H6.16V10.14c0-.08,0-.09,0-.12l4.62-4.11,1.15-1,1.16,1L17.72,10a.14.14,0,0,1,.06.13Z"/><path d="M13.71,12.29c-.52-.9-1.12-1.77-1.69-2.66a17.93,17.93,0,0,0-2.66,4.54,2.68,2.68,0,0,0-.14.79,2.76,2.76,0,0,0,3.47,2.63,2.68,2.68,0,0,0,1.88-3.47A10.52,10.52,0,0,0,13.71,12.29Zm-1.2,3.38a.9.9,0,0,1-1.06,0,.83.83,0,0,1-.32-1c.24-.56.52-1.1.79-1.65H12c.27.55.55,1.09.79,1.65A.84.84,0,0,1,12.51,15.67Z"/></svg>