<svg id="icones" xmlns="http://www.w3.org/2000/svg" viewBox="0 0 24 24"><title>floresta</title><path d="M11.3,22V19.7H11c-.81,0-1.63,0-2.43-.1a4.48,4.48,0,0,1-3.44-6,.3.3,0,0,0-.06-.34A4.53,4.53,0,0,1,7.52,6c.18,0,.23-.13.27-.29a4.39,4.39,0,0,1,8.34-1.06.41.41,0,0,0,.35.29,4.19,4.19,0,0,1,3.43,3.6,7.08,7.08,0,0,1,.05,1,4.36,4.36,0,0,1-.68,1.89.22.22,0,0,0,0,.21,5.58,5.58,0,0,1,.31.72A10.29,10.29,0,0,1,20,13.82a8,8,0,0,1-.05,1.11A5.62,5.62,0,0,1,17,19.2a3.81,3.81,0,0,1-1.88.48V17.83a6.23,6.23,0,0,0,.86-.26,3.75,3.75,0,0,0,1.55-5.18c-.23-.38-.52-.72-.79-1.1l.55-.55a2.27,2.27,0,0,0,.11-3.24,2.33,2.33,0,0,0-2.12-.74c-.19,0-.39,0-.59,0,0-.15-.05-.26-.07-.38A3,3,0,0,0,14,4.75a2.49,2.49,0,0,0-4.32,2c0,.33.07.66.11,1-.42,0-.82,0-1.23,0A2.52,2.52,0,0,0,6.23,9.2a2.59,2.59,0,0,0,.66,3.18c.25.21.52.41.78.62-.2.31-.4.6-.57.91A2.59,2.59,0,0,0,8.73,17.7a2.32,2.32,0,0,0,.52.07h2a.65.65,0,0,0,0-.11c0-1.08,0-2.16,0-3.23a.44.44,0,0,0-.14-.28L8.56,11.57a.58.58,0,0,0-.19-.1L9.83,10l1.48,1.49V8.67h1.91v4.9l1.31-1.31,1.35,1.35-.16.17c-.77.77-1.54,1.55-2.32,2.31a.63.63,0,0,0-.19.48V22Z"/></svg>