<svg id="icones" xmlns="http://www.w3.org/2000/svg" viewBox="0 0 24 24"><defs><style>.cls-1{fill:#0d0d0d;}</style></defs><title>fogo-alerta</title><path d="M16.15,11.58a7.63,7.63,0,0,0-1.7-2A4.6,4.6,0,0,1,12.9,6.31a11.82,11.82,0,0,1,.15-2c0-.31.09-.63.12-.94V3h-.44l-2,1.12A7.66,7.66,0,0,0,6.93,8.74c-.09.31-.15.63-.22.95a.5.5,0,0,0,0,.12l-.26-.07L4.88,9.28a.43.43,0,0,0-.57.26,14.64,14.64,0,0,0-.85,2.35,9.06,9.06,0,0,0-.26,3.87A6.47,6.47,0,0,0,8,20.8l.08,0A6.54,6.54,0,0,0,9,21c.23,0,.57,0,.9,0l1.15,0a6.1,6.1,0,0,0,2.58-.85,6.22,6.22,0,0,0,3.2-5A6.06,6.06,0,0,0,16.15,11.58Zm-3.4,3.24-.24-.22a2,2,0,0,1-.65-1.71l.12-1,.06-.74L11.68,11l-.13.07-.61.34a12.77,12.77,0,0,0-1.41.84A3.87,3.87,0,0,0,8,14.47l-1-.29-.11.24A6.09,6.09,0,0,0,6.21,18a4.63,4.63,0,0,1-1.47-3.19,8.83,8.83,0,0,1,.67-3.69L8.24,12v-.42a6.19,6.19,0,0,1,3-5.87v.16a6.3,6.3,0,0,0,2.22,5.11,5,5,0,0,1,1.45,1.86A4.78,4.78,0,0,1,13.79,18a.59.59,0,0,0,0-.14A3.33,3.33,0,0,0,12.75,14.82ZM7.79,17c0-.26.1-.53.16-.8v-.06l1.57.45v-1a2.54,2.54,0,0,1,.75-1.85c0,.15.06.3.1.45A3.43,3.43,0,0,0,11.58,16a1.86,1.86,0,0,1,.52,2.12,2,2,0,0,1-1.85,1.27,4.86,4.86,0,0,1-1-.07A2,2,0,0,1,7.79,17Z"/><rect class="cls-1" x="18.9" y="6.85" width="2" height="6"/><rect class="cls-1" x="18.9" y="14.85" width="2" height="2"/></svg>