<svg id="icones" xmlns="http://www.w3.org/2000/svg" viewBox="0 0 24 24">
  <title>instagram</title>
  <path d="M21.94,7.877a7.355,7.355,0,0,0-.465-2.427A5.106,5.106,0,0,0,18.55,2.525a7.349,7.349,0,0,0-2.427-.465C15.056,2.012,14.716,2,12,2s-3.056.012-4.123.06a7.355,7.355,0,0,0-2.427.465A5.106,5.106,0,0,0,2.525,5.45,7.355,7.355,0,0,0,2.06,7.877C2.011,8.944,2,9.284,2,12s.011,3.057.06,4.123a7.361,7.361,0,0,0,.465,2.428A5.108,5.108,0,0,0,5.45,21.475a7.329,7.329,0,0,0,2.427.465C8.944,21.989,9.284,22,12,22s3.056-.011,4.123-.06a7.324,7.324,0,0,0,2.427-.465,5.108,5.108,0,0,0,2.925-2.924,7.361,7.361,0,0,0,.465-2.428c.049-1.066.06-1.407.06-4.123S21.989,8.944,21.94,7.877Zm-1.8,8.164A5.552,5.552,0,0,1,19.8,17.9a3.31,3.31,0,0,1-1.9,1.9,5.526,5.526,0,0,1-1.857.344c-1.055.048-1.371.058-4.041.058s-2.986-.01-4.041-.058A5.526,5.526,0,0,1,6.1,19.8a3.31,3.31,0,0,1-1.9-1.9,5.578,5.578,0,0,1-.344-1.857C3.812,14.987,3.8,14.67,3.8,12s.01-2.986.058-4.041A5.578,5.578,0,0,1,4.2,6.1a3.125,3.125,0,0,1,.748-1.15A3.089,3.089,0,0,1,6.1,4.205,5.519,5.519,0,0,1,7.959,3.86C9.014,3.812,9.33,3.8,12,3.8s2.986.01,4.041.058a5.519,5.519,0,0,1,1.857.345,3.089,3.089,0,0,1,1.15.747A3.112,3.112,0,0,1,19.8,6.1a5.552,5.552,0,0,1,.344,1.857C20.188,9.014,20.2,9.33,20.2,12S20.188,14.987,20.14,16.041ZM12,6.865A5.135,5.135,0,1,0,17.135,12,5.135,5.135,0,0,0,12,6.865Zm0,8.468A3.333,3.333,0,1,1,15.333,12,3.333,3.333,0,0,1,12,15.333Zm6.538-8.671a1.2,1.2,0,1,1-1.2-1.2A1.2,1.2,0,0,1,18.538,6.662Z"/>
</svg>
