<svg id="icones" xmlns="http://www.w3.org/2000/svg" viewBox="0 0 24 24">
  <title>linkedin</title>
  <path d="M20,2H4A2,2,0,0,0,2,4V20a2,2,0,0,0,2,2H20a2,2,0,0,0,2-2V4A2,2,0,0,0,20,2Zm.5,18a.5.5,0,0,1-.5.5H4a.5.5,0,0,1-.5-.5V4A.5.5,0,0,1,4,3.5H20a.5.5,0,0,1,.5.5ZM6.238,10H8.716v8H6.238ZM8.93,7.474A1.465,1.465,0,1,1,7.465,6,1.472,1.472,0,0,1,8.93,7.474ZM18,12.935V18H15.534V13.8c0-1.152-.438-1.795-1.349-1.795-.991,0-1.509.67-1.509,1.8V18H10.3V10h2.377v1.078a2.79,2.79,0,0,1,2.412-1.322C16.785,9.755,18,10.791,18,12.935Z"/>
</svg>
