<svg width="146" height="32" viewBox="0 0 146 32" fill="none" xmlns="http://www.w3.org/2000/svg">
<g clip-path="url(#clip0_3942_14112)">
<path d="M77.8276 0H86.4865V11.8218H125.275V16.093H86.4865H85.2362H77.8276V0Z" fill="white"/>
<path d="M129.381 16.093H144.669V0H144.504H129.381H92.1729V7.73961H129.381V16.093Z" fill="white"/>
<path d="M0.95764 28.9766C-0.198501 29.1419 -0.434485 30.3453 0.95764 30.5575H19.2901C19.4846 30.5156 19.6624 30.417 19.801 30.2742C19.9396 30.1314 20.0327 29.9507 20.0687 29.755V24.9179C20.1633 24.1155 19.573 23.3606 18.4879 23.2901H3.19919C5.86515 21.473 11.4334 19.3022 18.9599 20.2934C20.2102 20.0809 19.9035 18.8299 18.8184 18.8775C15.4442 18.311 6.00692 18.3817 1.19392 23.0069C0.132292 23.9282 -0.198204 25.0359 1.19392 24.8475L17.922 24.8237V28.9766H0.95764Z" fill="white"/>
<path d="M25.1177 19.8919V30.0624C25.6369 30.7935 26.4391 30.9587 27.0998 30.0624V22.9609C27.3357 23.3386 28.4919 23.3148 28.3739 22.2297V19.0425C28.4209 18.2873 26.6751 18.1458 26.7223 19.0425C26.6516 19.3257 26.7458 19.6089 26.6751 19.8919C26.6275 19.373 25.3302 19.2077 25.1177 19.8919Z" fill="white"/>
<path d="M31.2052 20.7648C31.2052 24.2808 31.1814 27.0416 31.1814 30.5573C31.1577 30.9585 32.6208 32.2561 33.4699 30.5573V20.9298H37.5753L40.1241 23.9268C40.2674 24.0691 40.4375 24.1815 40.6246 24.2574C40.8117 24.3333 41.012 24.3713 41.2139 24.3691C41.4158 24.3669 41.6152 24.3246 41.8006 24.2447C41.986 24.1647 42.1536 24.0487 42.2938 23.9034L44.5823 20.8594L49.0404 20.8828L49.0877 30.5573C49.7246 31.8314 50.8569 31.289 51.1167 30.5573V20.7648C51.126 20.5671 51.0914 20.3698 51.0155 20.187C50.9396 20.0042 50.8243 19.8404 50.6777 19.7074C50.5312 19.5744 50.357 19.4754 50.1677 19.4176C49.9784 19.3597 49.7787 19.3444 49.5828 19.3727H43.5198L41.0184 22.3448L38.5412 19.3953H32.2404C31.5824 19.4435 31.2052 19.656 31.2052 20.7648Z" fill="white"/>
<path d="M53.5961 22.2284C53.2424 27.6554 65.9831 32.6577 74.5492 29.9207C74.6557 29.8433 74.7327 29.7319 74.7674 29.6049C74.8022 29.4779 74.7926 29.3429 74.7404 29.222C74.6881 29.1012 74.5963 29.0017 74.48 28.94C74.3637 28.8783 74.2298 28.858 74.1005 28.8826C69.7357 29.5662 63.1296 29.4725 58.0809 26.1688C62.9884 26.145 67.9185 26.145 72.8269 26.145C72.9295 26.1665 73.0358 26.1629 73.1367 26.1346C73.2377 26.1062 73.3303 26.054 73.4067 25.9822C73.4831 25.9104 73.5411 25.8213 73.5757 25.7224C73.6103 25.6234 73.6206 25.5176 73.6056 25.4138V19.9627C73.6181 19.853 73.6073 19.7419 73.5739 19.6366C73.5405 19.5314 73.4852 19.4344 73.4117 19.352C73.3382 19.2695 73.2481 19.2036 73.1473 19.1584C73.0465 19.1133 72.9374 19.0899 72.8269 19.0898H54.8937C54.469 19.2313 54.2101 19.8923 54.8937 20.2935L71.5748 20.317V24.6352L56.3331 24.6586C55.9084 24.0687 55.2949 23.1485 55.3184 22.2756C55.2949 21.3561 53.95 21.2844 53.5961 22.2284Z" fill="white"/>
<path d="M78.3228 24.0215V30.4634C78.7944 31.2659 79.6914 31.2894 80.328 30.4634V26.2868H97.15C97.6223 26.2633 97.7168 25.9566 97.693 25.5081V19.8908C97.693 19.6079 97.5278 19.3719 97.1028 19.3957L79.3134 19.4189C78.4639 19.6079 78.4402 20.3628 79.3134 20.5988L95.782 20.6226V24.7767H80.3045V24.0215C79.6679 23.1251 79.0542 23.172 78.3228 24.0215Z" fill="white"/>
<path d="M101.468 24.588V30.2278C101.492 30.7467 101.799 30.7925 102.271 30.7232C108.215 30.7232 114.139 30.7467 120.084 30.7467C120.627 30.6757 120.793 29.5433 120.084 29.2607H103.474V25.0599H118.149C119.542 25.9093 119.683 27.16 119.707 28.1984C120.32 29.0476 121.052 28.8116 121.311 28.1984C122.42 22.0632 110.315 18.4765 104.205 19.2783C104.079 19.3276 103.971 19.4136 103.895 19.5252C103.819 19.6368 103.778 19.7687 103.778 19.9038C103.778 20.0389 103.819 20.1708 103.895 20.2824C103.971 20.394 104.079 20.48 104.205 20.5293C108.523 20.1756 114.822 21.9687 116.663 23.6202H102.53C101.799 23.5968 101.421 23.9038 101.468 24.588Z" fill="white"/>
<path d="M125.133 24.0215V30.2745C125.582 31.0535 126.761 31.03 127.115 30.2745V26.0274H137.662C138.322 28.7174 140.304 30.5342 142.145 30.4873H144.552C144.977 30.4873 145.307 29.5196 144.576 29.2363H142.192C141.272 29.0476 139.643 27.5375 139.761 26.0511H143.655C144.056 26.0511 144.576 25.8621 144.645 25.3429V19.6092C144.622 19.2314 144.387 18.8777 143.726 18.9719H126.36C125.417 18.9247 125.299 20.3875 126.36 20.4348H142.663V24.6352H127.115V24.0215C127.068 23.1251 125.322 22.9361 125.133 24.0215Z" fill="white"/>
</g>
<defs>
<clipPath id="clip0_3942_14112">
<rect width="145.333" height="32" fill="white"/>
</clipPath>
</defs>
</svg>
