<svg width="32" height="32" viewBox="0 0 32 32" fill="none" xmlns="http://www.w3.org/2000/svg">
<path fill-rule="evenodd" clip-rule="evenodd" d="M16 28C22.6274 28 28 22.6274 28 16C28 9.37258 22.6274 4 16 4C9.37258 4 4 9.37258 4 16C4 22.6274 9.37258 28 16 28ZM16 32C24.8366 32 32 24.8366 32 16C32 7.16344 24.8366 0 16 0C7.16344 0 0 7.16344 0 16C0 24.8366 7.16344 32 16 32Z" fill="black"/>
<path d="M14.2969 12L16.4883 18.1875L18.668 12H20.9766V20.5312H19.2129V18.1992L19.3887 14.1738L17.0859 20.5312H15.8789L13.582 14.1797L13.7578 18.1992V20.5312H12V12H14.2969Z" fill="black"/>
</svg>
