<svg id="icones" xmlns="http://www.w3.org/2000/svg" viewBox="0 0 24 24"><title>onda</title><path d="M21,17a.83.83,0,0,0-.89-.91,12.14,12.14,0,0,1-3.1-.37,6.63,6.63,0,0,1-2.65-1.34,3.91,3.91,0,0,1-.75-5,1.72,1.72,0,0,1,.83-.73,1.41,1.41,0,0,1,1.39.28,1.92,1.92,0,0,1,.78,1.51c0,.42,0,.87.05,1.29v.48a2.54,2.54,0,0,1,0,.39c0,.24,0,.49,0,.74a1,1,0,0,0,.51.85,1.11,1.11,0,0,0,1,0,3.47,3.47,0,0,0,1.09-1,5.51,5.51,0,0,0,1.19-2.94A5.3,5.3,0,0,0,20,7.31a5.64,5.64,0,0,0-3.14-2.73,8.22,8.22,0,0,0-4.18-.45,10.56,10.56,0,0,0-8.5,6.43A12.75,12.75,0,0,0,3.07,15l0,.57,0,3.73v.08A.9.9,0,0,0,4,20H20a.84.84,0,0,0,1-1ZM7.06,18.32H4.65c0-.26,0-.51,0-.77,0-.64,0-1.31,0-2a11,11,0,0,1,1.87-6,9,9,0,0,1,5.66-3.74,7.34,7.34,0,0,1,3.46.06,4.53,4.53,0,0,1,2.54,1.61,3.6,3.6,0,0,1,.69,1.94,3.74,3.74,0,0,1-.58,2.32c0-.31,0-.62,0-.92a4.62,4.62,0,0,0-.51-2.13,3.34,3.34,0,0,0-2.92-1.82,8.23,8.23,0,0,0-8,5.63A8,8,0,0,0,7.06,18.32Zm4-7.55a4.45,4.45,0,0,1,.46-.65c0,.12-.06.25-.08.38a5.42,5.42,0,0,0,.86,3.95,6.47,6.47,0,0,0,3.14,2.44,12.05,12.05,0,0,0,3.89.76v.68H14.85a4.18,4.18,0,0,1-1.9-.48,4.53,4.53,0,0,1-2.52-3.65A5.26,5.26,0,0,1,11.1,10.77Zm-3,3.55A6.71,6.71,0,0,1,9,11.84a6.67,6.67,0,0,0,1.84,6.49h-.22c-.56,0-1.12,0-1.71,0A6.52,6.52,0,0,1,8.1,14.32Z"/></svg>