<svg id="icones" xmlns="http://www.w3.org/2000/svg" viewBox="0 0 24 24"><title>pantano</title><path d="M3,17.42H21a1,1,0,0,0,1-.55l0-.4,0-.09a1,1,0,0,0-1-.55H18.52v0c0-.19,0-.38,0-.56l.72-.29.66-.27a.8.8,0,0,0,.52-.86.77.77,0,0,0-.38-.56.75.75,0,0,0-.67-.06c-.22.07-.44.16-.65.25l-.2.08v-.5a2,2,0,0,0,1.14-1.92V7.55a1.9,1.9,0,0,0-1.14-1.84c0-.19,0-.39,0-.59V4.86a.87.87,0,0,0-.25-.64A.76.76,0,0,0,17.73,4h0a.8.8,0,0,0-.78.85v.08c0,.26,0,.53,0,.77a1.89,1.89,0,0,0-1.15,1.82v3.72A1.83,1.83,0,0,0,16.93,13c0,.82,0,1.64,0,2.47v.34H12.79V15.1l0,0,.91-.73.63-.51a.76.76,0,0,0,.31-.8.78.78,0,0,0-.59-.61.82.82,0,0,0-.72.19l-.58.46v-2a1.9,1.9,0,0,0,1.14-1.8q0-1.87,0-3.75a1.85,1.85,0,0,0-1.14-1.78V3.42c0-.14,0-.27,0-.4,0-.54-.17-.91-.59-1a.9.9,0,0,0-.4,0c-.42.09-.63.46-.59,1,0,.13,0,.27,0,.4a2.91,2.91,0,0,0,0,.3,1.91,1.91,0,0,0-1.16,1.81V9.24a1.9,1.9,0,0,0,1.15,1.82v.87l-.57-.45a.78.78,0,0,0-1.16.07.8.8,0,0,0,.18,1.16l1.5,1.2c.05,0,.05.05.05.1v1.82H7.06c0-.19,0-.37,0-.57l1.39-.56a.79.79,0,1,0-.58-1.46c-.13,0-.26.1-.39.15l-.42.17v-.5a2,2,0,0,0,1.14-2c0-.7,0-1.4,0-2.11V7.51A1.91,1.91,0,0,0,7.06,5.7c0-.28,0-.57,0-.86a.84.84,0,0,0-.25-.62A.82.82,0,0,0,6.26,4a.8.8,0,0,0-.78.83v.08c0,.26,0,.52,0,.8A1.9,1.9,0,0,0,4.34,7.48q0,1.89,0,3.78a2,2,0,0,0,1.14,1.81v2.77H3c-.58,0-.94.3-.94.78a.73.73,0,0,0,.21.54A1,1,0,0,0,3,17.42Zm3-6.2V7.54c0-.21.09-.43.35-.43s.36.22.36.43v3.68a.46.46,0,0,1-.12.33.28.28,0,0,1-.24.09A.37.37,0,0,1,5.92,11.22Zm6.43-2a.47.47,0,0,1-.11.33.4.4,0,0,1-.25.09c-.21,0-.34-.17-.34-.42V5.56c0-.21.1-.44.36-.44h0a.3.3,0,0,1,.24.1.47.47,0,0,1,.11.33C12.36,6.78,12.36,8,12.35,9.23Zm5.73,2a.37.37,0,0,1-.35.42.33.33,0,0,1-.24-.09.46.46,0,0,1-.12-.33V7.54a.47.47,0,0,1,.12-.34.32.32,0,0,1,.24-.09h0c.26,0,.35.22.35.43Z"/><path d="M21,18.12c-.48,0-1,0-1.45,0H19a.79.79,0,1,0,0,1.58h.65c.47,0,.93,0,1.4,0h.05a.92.92,0,0,0,.92-.55l0-.39,0-.09A1,1,0,0,0,21,18.12Z"/><path d="M17.37,18.92a.8.8,0,0,0-.22-.55.9.9,0,0,0-.64-.24h-3.3a.94.94,0,0,0-.64.24.75.75,0,0,0-.21.56.79.79,0,0,0,.85.78H16.5A.8.8,0,0,0,17.37,18.92Z"/><path d="M5.82,19.71a.87.87,0,0,0,.64-.25.74.74,0,0,0,.22-.55.79.79,0,0,0-.85-.78h-3a.79.79,0,0,0-.86.78.76.76,0,0,0,.22.55.88.88,0,0,0,.64.25h3Z"/><path d="M7.36,20.42H4.43a.81.81,0,0,0-.86.78.78.78,0,0,0,.22.55.88.88,0,0,0,.64.25H6.87A1.61,1.61,0,0,0,8,21.78a.78.78,0,0,0,.25-.58A.79.79,0,0,0,7.36,20.42Z"/><path d="M13.46,20.42H10.54a.88.88,0,0,0-.64.25.76.76,0,0,0-.22.55.8.8,0,0,0,.85.78h2.92a.81.81,0,0,0,.87-.79.76.76,0,0,0-.22-.54A.9.9,0,0,0,13.46,20.42Z"/><path d="M19.58,20.42h-3a.8.8,0,0,0-.83.78.78.78,0,0,0,.22.55.87.87,0,0,0,.62.25h3a.87.87,0,0,0,.62-.25.72.72,0,0,0,.21-.55A.78.78,0,0,0,19.58,20.42Z"/><path d="M10.88,18.92a.79.79,0,0,0-.8-.79H8.56a.8.8,0,0,0-.79.78.79.79,0,0,0,.23.56.85.85,0,0,0,.57.24h1.51A.8.8,0,0,0,10.88,18.92Z"/></svg>