<svg width="32" height="32" viewBox="0 0 32 32" fill="none" xmlns="http://www.w3.org/2000/svg">
<path fill-rule="evenodd" clip-rule="evenodd" d="M16 28C22.6274 28 28 22.6274 28 16C28 9.37258 22.6274 4 16 4C9.37258 4 4 9.37258 4 16C4 22.6274 9.37258 28 16 28ZM16 32C24.8366 32 32 24.8366 32 16C32 7.16344 24.8366 0 16 0C7.16344 0 0 7.16344 0 16C0 24.8366 7.16344 32 16 32Z" fill="black"/>
<path d="M14.7578 17.5254V20.5312H13V12H16.3281C16.9688 12 17.5312 12.1172 18.0156 12.3516C18.5039 12.5859 18.8789 12.9199 19.1406 13.3535C19.4023 13.7832 19.5332 14.2734 19.5332 14.8242C19.5332 15.6602 19.2461 16.3203 18.6719 16.8047C18.1016 17.2852 17.3105 17.5254 16.2988 17.5254H14.7578ZM14.7578 16.1016H16.3281C16.793 16.1016 17.1465 15.9922 17.3887 15.7734C17.6348 15.5547 17.7578 15.2422 17.7578 14.8359C17.7578 14.418 17.6348 14.0801 17.3887 13.8223C17.1426 13.5645 16.8027 13.4316 16.3691 13.4238H14.7578V16.1016Z" fill="black"/>
</svg>
