<svg width="32" height="32" viewBox="0 0 32 32" fill="none" xmlns="http://www.w3.org/2000/svg">
<path d="M14.5195 16.9941V20H12.7617V11.4688H16.0898C16.7305 11.4688 17.293 11.5859 17.7773 11.8203C18.2656 12.0547 18.6406 12.3887 18.9023 12.8223C19.1641 13.252 19.2949 13.7422 19.2949 14.293C19.2949 15.1289 19.0078 15.7891 18.4336 16.2734C17.8633 16.7539 17.0723 16.9941 16.0605 16.9941H14.5195ZM14.5195 15.5703H16.0898C16.5547 15.5703 16.9082 15.4609 17.1504 15.2422C17.3965 15.0234 17.5195 14.7109 17.5195 14.3047C17.5195 13.8867 17.3965 13.5488 17.1504 13.291C16.9043 13.0332 16.5645 12.9004 16.1309 12.8926H14.5195V15.5703Z" fill="black"/>
<rect x="2" y="2" width="28" height="28" rx="14" stroke="black" stroke-width="4"/>
</svg>
