<svg id="icones" xmlns="http://www.w3.org/2000/svg" viewBox="0 0 24 24"><title>predio</title><path d="M20.9,20.56a.88.88,0,0,0-.31,0H19.34V2.9A.84.84,0,0,0,18.78,2H5.22a.85.85,0,0,0-.57.89q0,6.81,0,13.62v4H3.33a.75.75,0,0,0-.56.23.72.72,0,0,0-.2.55.75.75,0,0,0,.84.7H20.75a.74.74,0,0,0,.67-.65A.71.71,0,0,0,20.9,20.56Zm-7.11-3.63v3.58H10.21V16.93Zm.66-1.49H9.55a.75.75,0,0,0-.83.84V20.5H6.15v-17H17.84v17H15.28V16.28A.75.75,0,0,0,14.45,15.44Z"/><path d="M8,8.85h2.7a.74.74,0,0,0,.8-.79c0-.91,0-1.81,0-2.71a.74.74,0,0,0-.79-.8H8a.75.75,0,0,0-.79.78V8.06A.76.76,0,0,0,8,8.85ZM10,6V7.36H8.69V6Z"/><path d="M13.3,8.85H16a.76.76,0,0,0,.81-.79V5.33a.75.75,0,0,0-.8-.78H13.29a.74.74,0,0,0-.79.78q0,1.37,0,2.73A.74.74,0,0,0,13.3,8.85Zm2-2.81V7.36H14V6Z"/><path d="M10.71,9.91H8a.75.75,0,0,0-.81.81v2.69a.76.76,0,0,0,.81.81h2.69a.75.75,0,0,0,.81-.82V11.69c0-.33,0-.65,0-1A.74.74,0,0,0,10.71,9.91ZM10,11.4v1.32H8.68V11.4Z"/><path d="M16.81,13.38V10.73A.76.76,0,0,0,16,9.91H13.32a.76.76,0,0,0-.83.83v2.65a.77.77,0,0,0,.83.83H16A.77.77,0,0,0,16.81,13.38Zm-1.5-2v1.31H14V11.41Z"/></svg>