<svg id="icones" xmlns="http://www.w3.org/2000/svg" viewBox="0 0 24 24"><title>reservatorios</title><path d="M22.08,14.76a.72.72,0,0,0-.67,0,1.81,1.81,0,0,1-1.51,0,3.75,3.75,0,0,0-1-.25,3.06,3.06,0,0,0-1.6.31,1.5,1.5,0,0,1-.3.1l-.16-.63c-.25-1.05-.61-2.57-.94-4L14.17,3a1.34,1.34,0,0,0-1.42-1.14H11.08A1.32,1.32,0,0,0,9.69,3.19c0,.47,0,2.09,0,2.85a1.13,1.13,0,0,0,0,.26v.49c0,.6,0,1.21,0,1.83a1.7,1.7,0,0,1-1-.12,3,3,0,0,0-2.57,0,1.73,1.73,0,0,1-1.52,0A2.87,2.87,0,0,0,3,8.22a2,2,0,0,0-1.27.49l-.11.11V21.76l.07.1a.91.91,0,0,0,.78.33H21.66a.68.68,0,0,0,.71-.74q0-3,0-6.09A.7.7,0,0,0,22.08,14.76ZM4,9.67a3.08,3.08,0,0,0,2.28.17,2.08,2.08,0,0,0,.32-.12l.16-.06a1.49,1.49,0,0,1,1.19,0A3.47,3.47,0,0,0,9.67,10v1.76a1.48,1.48,0,0,1-1-.11,3,3,0,0,0-2-.23A4.79,4.79,0,0,0,6,11.6l-.09,0a1.46,1.46,0,0,1-1.16,0,3.9,3.9,0,0,0-1.5-.35l-.31,0V9.57A1.59,1.59,0,0,1,4,9.67Zm5.73,5.16a1.79,1.79,0,0,1-1.06-.13,3,3,0,0,0-2.21-.14l-.34.13L6,14.74a1.51,1.51,0,0,1-1.25,0,3.6,3.6,0,0,0-1.43-.32H3V12.68A1.72,1.72,0,0,1,4,12.81a3,3,0,0,0,2.55,0A1.63,1.63,0,0,1,8,12.8a3.09,3.09,0,0,0,1.65.28v.41C9.67,13.93,9.67,14.38,9.68,14.83ZM3,20.67V18.89A1.6,1.6,0,0,1,4,19a3.11,3.11,0,0,0,2.73,0,1.32,1.32,0,0,1,.45-.11,2.07,2.07,0,0,1,.69.07,4,4,0,0,0,1.84.34v1.55H3Zm5.72-2.84a3,3,0,0,0-2-.23,4.89,4.89,0,0,0-.73.25,1.42,1.42,0,0,1-1.14,0,4.15,4.15,0,0,0-1.54-.36l-.29,0V15.79a1.53,1.53,0,0,1,1,.11,2.81,2.81,0,0,0,1.58.28,3.73,3.73,0,0,0,1-.24,1.84,1.84,0,0,1,1.62,0,2.79,2.79,0,0,0,1.53.23v1.76A1.54,1.54,0,0,1,8.68,17.83Zm1.19-2.66-.08-.36h0l.07.36Zm3-11.95,2.14,9,.55,2.34,1.5,6.29H11V6.7a1.23,1.23,0,0,0,0-.2V3.24c0-.05,0-.08,0-.09h1.82A.45.45,0,0,0,12.86,3.22ZM19.21,19a3.81,3.81,0,0,0,1.81.34v1.55H18.43L18,19A1.5,1.5,0,0,1,19.21,19ZM20,17.83a3.18,3.18,0,0,0-1.33-.31,3,3,0,0,0-.67.08l-.34.1-.38-1.58.13,0,1-.3a1.47,1.47,0,0,1,.91.09,3.07,3.07,0,0,0,1.72.31v1.76A1.55,1.55,0,0,1,20,17.83Zm-10-11.55ZM21.64,21.82Z"/></svg>