<svg id="icones" xmlns="http://www.w3.org/2000/svg" viewBox="0 0 24 24">
  <title>twitter</title>
  <path d="M3,17.738a8.52,8.52,0,0,0,5.4-1.5,4.091,4.091,0,0,1-2.155-.8,3.813,3.813,0,0,1-1.366-1.876,3.864,3.864,0,0,0,1.712-.063A3.75,3.75,0,0,1,3.623,9.836a3.9,3.9,0,0,0,1.705.429A3.744,3.744,0,0,1,3.685,7.4a3.469,3.469,0,0,1,.532-2.061,10.607,10.607,0,0,0,7.623,3.87c-.033-.238-.077-.451-.091-.666a3.738,3.738,0,0,1,3.02-3.829,3.658,3.658,0,0,1,3.33,1,.274.274,0,0,0,.21.058,6.844,6.844,0,0,0,1.971-.752c.052-.028.1-.058.155-.085.008,0,.021,0,.061,0a3.808,3.808,0,0,1-1.545,1.981A8.383,8.383,0,0,0,21,6.429c-.061.087-.118.176-.182.26a7.805,7.805,0,0,1-1.516,1.5.3.3,0,0,0-.12.205,8.2,8.2,0,0,1-.2,2.44A10.672,10.672,0,0,1,14.6,17.562a9.983,9.983,0,0,1-5.147,1.765A10.592,10.592,0,0,1,3.638,18.1C3.421,17.989,3.212,17.86,3,17.738Zm6.41-5.12a2.888,2.888,0,0,1-1.624,2.039,6.3,6.3,0,0,0,2.713.186,3.671,3.671,0,0,1-2.06,3.072.164.164,0,0,0,.083.025,8.94,8.94,0,0,0,4.78-1.225,9.04,9.04,0,0,0,3.859-4.66,8.155,8.155,0,0,0,.591-3.806,2.277,2.277,0,0,0-2.643-2.161A2.308,2.308,0,0,0,13.19,8.654c.04.255.108.506.165.758.1.422.194.843.3,1.284-.735-.035-1.448-.055-2.159-.106A11.773,11.773,0,0,1,5.661,8.549c-.04-.026-.083-.05-.124-.075a6.272,6.272,0,0,0,2.208,1.94,3.884,3.884,0,0,1-1.759,1.3A7.2,7.2,0,0,0,9.41,12.618Z"/>
</svg>
