<svg id="icones" xmlns="http://www.w3.org/2000/svg" viewBox="0 0 24 24"><title>volume</title><path d="M18.52,3.42a4.62,4.62,0,0,0-1.37-.77A11.85,11.85,0,0,0,13.68,2,16,16,0,0,0,8,2.31a5.66,5.66,0,0,0-2.22.86,1.6,1.6,0,0,0-.8,1.44v14.8a1.86,1.86,0,0,0,.45,1.17,3.81,3.81,0,0,0,1.16.76l.22.11a10.68,10.68,0,0,0,4.06.68h2.26c.88-.08,1.78-.17,2.7-.33a6.18,6.18,0,0,0,2.39-.95,1.74,1.74,0,0,0,.72-1.43v-.08c.08-5.09.16-9.9.16-14.72A1.62,1.62,0,0,0,18.52,3.42Zm-7.36,17.2A13.07,13.07,0,0,1,8,20.21l-.28-.09a2.91,2.91,0,0,1-1-.49,1.46,1.46,0,0,0-.2-.1h0s0,0,.12-.1a5.91,5.91,0,0,1,1.63-.65,18.38,18.38,0,0,1,3.82-.42,13,13,0,0,1,3.89.5,7.32,7.32,0,0,1,1.4.57l.13.1a.61.61,0,0,1-.13.11h0a3.87,3.87,0,0,1-1.79.65A15.88,15.88,0,0,1,11.16,20.62ZM15.57,5.24a17,17,0,0,1-3.65.33A15.22,15.22,0,0,1,8,5.16a7.5,7.5,0,0,1-1.39-.57l-.13-.1h0a.61.61,0,0,1,.13-.11,5.73,5.73,0,0,1,1.63-.65,17.32,17.32,0,0,1,4.65-.33A17.32,17.32,0,0,1,16,3.81a7.32,7.32,0,0,1,1.4.57l.13.1a.56.56,0,0,1-.14.11A4,4,0,0,1,15.57,5.24ZM17.48,17.8A14.68,14.68,0,0,0,12,16.86a13.25,13.25,0,0,0-5.48.93V6.22A14.66,14.66,0,0,0,12,7.07a13.25,13.25,0,0,0,5.48-.93Z"/></svg>