<svg width="100%" height="100%" xmlns="http://www.w3.org/2000/svg" fill="white">
    <svg xmlns="http://www.w3.org/2000/svg" viewBox="0 0 174.57 296.5" preserveAspectRatio="xMaxYMax meet">
        <path d="M174.54,270.64l-61-264.15A8.36,8.36,0,0,0,105.43,0H72.35A8.37,8.37,0,0,0,64,8.37V271.92H173.52A1,1,0,0,0,174.54,270.64Zm-106.38-2.9V8.37a4.2,4.2,0,0,1,4.19-4.19h33.08a4.17,4.17,0,0,1,4.08,3.25l60.07,260.31Z"/>
         <path d="M86,109.62c1.09.87,2.22,1.74,3.35,2.57l1.24-1.69c-1.11-.81-2.22-1.66-3.29-2.51Z"/>
         <path d="M92.8,114.61c1.16.78,2.35,1.55,3.55,2.29l1.1-1.78c-1.18-.73-2.35-1.48-3.48-2.24Z"/>
         <path d="M100,119.06c1.21.69,2.45,1.37,3.7,2l1-1.86c-1.22-.64-2.45-1.3-3.64-2Z"/>
         <path d="M79.63,104.06c1,1,2.06,1.93,3.12,2.85l1.38-1.57c-1-.91-2.07-1.85-3.06-2.79Z"/>
         <path d="M68.59,91.25c.8,1.15,1.64,2.29,2.52,3.41l1.65-1.28c-.85-1.09-1.68-2.21-2.46-3.32Z"/>
         <path d="M107.45,123c1.26.61,2.54,1.2,3.83,1.77l.84-1.92c-1.26-.56-2.52-1.13-3.76-1.73Z"/>
         <path d="M73.79,97.94c.91,1,1.87,2.1,2.85,3.13l1.51-1.44c-1-1-1.88-2-2.77-3.06Z"/>
         <path d="M115.16,126.38c1.31.52,2.62,1,3.94,1.52l.72-2c-1.3-.48-2.59-1-3.87-1.49Z"/>
         <path d="M127.09,130.57l.6-2c-1.32-.4-2.64-.82-4-1.26l-.67,2C124.41,129.74,125.75,130.17,127.09,130.57Z"/>
         <path d="M135.23,132.79l.49-2c-1.35-.32-2.69-.67-4-1l-.55,2C132.5,132.11,133.86,132.46,135.23,132.79Z"/>
         <path d="M101.55,96.72c-1.13-.77-2.27-1.58-3.38-2.41L96.93,96c1.13.84,2.29,1.67,3.44,2.45Z"/>
         <path d="M108.58,101.09c-1.19-.67-2.39-1.38-3.56-2.11l-1.11,1.77c1.21.75,2.43,1.47,3.64,2.16Z"/>
         <path d="M72.48,67.48c-.79-1.14-1.55-2.29-2.3-3.46l-1.76,1.13c.75,1.17,1.54,2.35,2.34,3.51Z"/>
         <path d="M94.9,91.77c-1.07-.86-2.14-1.76-3.18-2.66l-1.37,1.58c1.05.92,2.14,1.83,3.24,2.71Z"/>
         <path d="M77.43,74.13c-.86-1.07-1.71-2.18-2.53-3.28l-1.68,1.24c.83,1.13,1.7,2.25,2.57,3.35Z"/>
         <path d="M123.66,107.83c-1.3-.44-2.61-.91-3.89-1.42l-.76,2c1.31.52,2.65,1,4,1.45Z"/>
         <path d="M116,104.81c-1.25-.56-2.5-1.15-3.73-1.78l-.94,1.87c1.25.64,2.54,1.25,3.82,1.82Z"/>
         <path d="M131.6,110.06c-1.34-.3-2.68-.64-4-1l-.57,2c1.36.38,2.74.73,4.11,1Z"/>
         <path d="M88.65,86.33c-1-1-2-1.92-3-2.9L84.2,84.9c1,1,2,2,3,2.95Z"/>
         <path d="M82.82,80.43c-.93-1-1.86-2.06-2.75-3.1l-1.59,1.36c.91,1.06,1.85,2.12,2.8,3.15Z"/>
         <path d="M74,271.92H64V296.5H75.49V271.92ZM65,273h4.55L65,277.52Zm9.41,20.24-2.24,2.24H65v-2l9.41-9.41Zm0-12.55L65,290.07v-9.14l8-8h1.45Z"/>
         <path d="M39.93,117.31H59a2.41,2.41,0,0,1,2.42,2.41V269.51H2.88L37.57,119.18a2.42,2.42,0,0,1,2.36-1.87m0-2.42a4.83,4.83,0,0,0-4.71,3.75L0,271.18a.6.6,0,0,0,.58.74H63.87V119.72A4.84,4.84,0,0,0,59,114.89Z"/>
    </svg>
</svg>
