<svg width="100%" height="100%" xmlns="http://www.w3.org/2000/svg" fill="white">
    <svg xmlns="http://www.w3.org/2000/svg" viewBox="0 0 265.96 296.5" preserveAspectRatio="xMaxYMax meet">
        <path d="M265.93,283.15,202.16,6.81A8.74,8.74,0,0,0,193.63,0H159a8.75,8.75,0,0,0-8.75,8.75V284.49h114.6A1.09,1.09,0,0,0,265.93,283.15Zm-111.29-3V8.77A4.38,4.38,0,0,1,159,4.4h34.61a4.36,4.36,0,0,1,4.27,3.39l62.84,272.32Z"/>
         <path d="M173.3,114.7c1.14.91,2.32,1.81,3.51,2.68l1.29-1.76c-1.16-.85-2.32-1.74-3.43-2.63Z"/>
         <path d="M180.42,119.92c1.21.81,2.46,1.62,3.71,2.4l1.15-1.87c-1.23-.76-2.45-1.55-3.63-2.34Z"/>
         <path d="M187.93,124.57c1.26.72,2.57,1.43,3.87,2.11l1-1.93c-1.29-.67-2.57-1.37-3.81-2.08Z"/>
         <path d="M166.64,108.88c1.06,1,2.16,2,3.27,3l1.43-1.65c-1.08-1-2.16-1.93-3.19-2.92Z"/>
         <path d="M155.09,95.48c.84,1.2,1.72,2.4,2.63,3.57l1.73-1.35c-.89-1.14-1.75-2.31-2.57-3.47Z"/>
         <path d="M195.74,128.66c1.33.64,2.66,1.26,4,1.85l.88-2c-1.32-.59-2.64-1.19-3.94-1.82Z"/>
         <path d="M160.54,102.47c1,1.11,2,2.21,3,3.28l1.59-1.51c-1-1-2-2.12-2.91-3.2Z"/>
         <path d="M203.81,132.23c1.37.55,2.74,1.08,4.12,1.59l.75-2.06q-2-.75-4.05-1.56Z"/>
         <path d="M216.29,136.62l.63-2.1q-2.07-.63-4.14-1.32l-.69,2.08C213.48,135.75,214.88,136.19,216.29,136.62Z"/>
         <path d="M224.8,138.93l.52-2.13c-1.41-.33-2.82-.69-4.22-1.08l-.57,2.12C222,138.22,223.38,138.59,224.8,138.93Z"/>
         <path d="M189.57,101.2c-1.18-.81-2.37-1.65-3.53-2.52l-1.3,1.76c1.18.88,2.39,1.74,3.6,2.57Z"/>
         <path d="M196.93,105.77c-1.25-.7-2.5-1.44-3.73-2.21l-1.15,1.86c1.25.78,2.53,1.54,3.8,2.26Z"/>
         <path d="M159.16,70.61c-.82-1.19-1.62-2.4-2.4-3.61l-1.85,1.18c.79,1.22,1.61,2.46,2.45,3.67Z"/>
         <path d="M182.61,96c-1.12-.91-2.24-1.84-3.32-2.79l-1.44,1.65c1.11,1,2.25,1.92,3.39,2.84Z"/>
         <path d="M164.34,77.57c-.9-1.12-1.79-2.28-2.65-3.44l-1.76,1.31q1.32,1.77,2.7,3.5Z"/>
         <path d="M212.7,112.82c-1.36-.45-2.73-.95-4.06-1.48l-.8,2c1.37.54,2.77,1.05,4.16,1.52Z"/>
         <path d="M204.65,109.67c-1.31-.59-2.62-1.21-3.9-1.86l-1,2c1.31.67,2.66,1.31,4,1.91Z"/>
         <path d="M221,115.16c-1.4-.32-2.81-.68-4.19-1.06l-.59,2.1c1.42.4,2.86.77,4.3,1.09Z"/>
         <path d="M176.08,90.33c-1.05-1-2.1-2-3.11-3l-1.55,1.54c1,1,2.09,2.08,3.16,3.08Z"/>
         <path d="M170,84.16C169,83.1,168,82,167.1,80.91l-1.66,1.43c.95,1.11,1.93,2.22,2.93,3.3Z"/>
         <path d="M23.64,284.49H14.9l-.31.34V296.5h10v-12Zm-8,1.09h7.05l-7,7.71Zm8,9.83H16.9l6.68-7.3Z"/>
         <path d="M56,280.13V0H0V284.49H150.28v-4.36Zm-41.2,0H4V4.36H14.8Zm34.2,0H16.8V4.36H52V280.13Z"/>
    </svg>
</svg>
